<svg width="62" height="62" viewBox="0 0 62 62" fill="none" xmlns="http://www.w3.org/2000/svg">
<path d="M27.3837 35.6498L21.8295 30.0957C21.3559 29.6221 20.7531 29.3853 20.0212 29.3853C19.2892 29.3853 18.6864 29.6221 18.2128 30.0957C17.7392 30.5693 17.5024 31.1721 17.5024 31.904C17.5024 32.636 17.7392 33.2387 18.2128 33.7123L25.5753 41.0748C26.092 41.5915 26.6948 41.8498 27.3837 41.8498C28.0726 41.8498 28.6753 41.5915 29.192 41.0748L43.7878 26.479C44.2614 26.0054 44.4982 25.4026 44.4982 24.6707C44.4982 23.9387 44.2614 23.336 43.7878 22.8623C43.3142 22.3887 42.7114 22.1519 41.9795 22.1519C41.2476 22.1519 40.6448 22.3887 40.1712 22.8623L27.3837 35.6498ZM31.0003 56.8332C27.4267 56.8332 24.0684 56.1546 20.9253 54.7975C17.7823 53.4404 15.0482 51.6002 12.7232 49.2769C10.3982 46.9536 8.55805 44.2196 7.20266 41.0748C5.84727 37.9301 5.16872 34.5717 5.167 30.9998C5.16527 27.4279 5.84383 24.0696 7.20266 20.9248C8.5615 17.7801 10.4017 15.046 12.7232 12.7228C15.0448 10.3995 17.7788 8.55928 20.9253 7.20217C24.0718 5.84506 27.4302 5.1665 31.0003 5.1665C34.5705 5.1665 37.9288 5.84506 41.0753 7.20217C44.2218 8.55928 46.9559 10.3995 49.2774 12.7228C51.599 15.046 53.44 17.7801 54.8006 20.9248C56.1611 24.0696 56.8388 27.4279 56.8337 30.9998C56.8285 34.5717 56.1499 37.9301 54.798 41.0748C53.4461 44.2196 51.6059 46.9536 49.2774 49.2769C46.949 51.6002 44.2149 53.4413 41.0753 54.8001C37.9357 56.1589 34.5774 56.8366 31.0003 56.8332Z" fill="url(#paint0_radial_3_6716)"/>
<defs>
<radialGradient id="paint0_radial_3_6716" cx="0" cy="0" r="1" gradientUnits="userSpaceOnUse" gradientTransform="translate(31.0003 30.9998) rotate(90) scale(25.8333 25.8334)">
<stop stop-color="#E5F1CA"/>
<stop offset="1" stop-color="#F73A93"/>
</radialGradient>
</defs>
</svg>
