<svg width="29" height="30" viewBox="0 0 29 30" fill="none" xmlns="http://www.w3.org/2000/svg">
<g clip-path="url(#clip0_3_4595)">
<path d="M10.8536 4.59955C11.25 4.18301 11.7284 3.95813 12.2888 3.92478C12.8492 3.87479 13.3619 4.00809 13.8266 4.32463C14.2913 4.62456 14.6672 5.06605 14.9543 5.64919C15.255 6.23233 15.3712 6.84045 15.3029 7.47356C15.1935 6.85712 14.9953 6.27398 14.7082 5.72419C14.4349 5.17437 14.1137 4.77447 13.7446 4.52458C13.3619 4.29133 12.9039 4.19135 12.3708 4.22471C11.8514 4.24134 11.3457 4.36632 10.8536 4.59955ZM6.91689 6.49891C7.06724 6.01572 7.33379 5.59923 7.71653 5.24934C8.11293 4.89945 8.52299 4.73282 8.94675 4.74949C9.37048 4.74949 9.77371 4.92443 10.1564 5.27429C10.5392 5.62421 10.7989 6.04072 10.9356 6.52389C10.6759 6.12404 10.3615 5.83245 9.99241 5.64919C9.62336 5.44927 9.27482 5.34929 8.94675 5.34929C8.60501 5.33263 8.2496 5.42426 7.88055 5.62421C7.51148 5.80747 7.19027 6.09906 6.91689 6.49891ZM11.2636 6.62387C11.5507 6.35729 11.8992 6.19069 12.3093 6.12404C12.7194 6.05736 13.0816 6.1407 13.396 6.37392C13.6967 6.60718 13.9223 6.96538 14.0726 7.44858C14.223 7.91508 14.264 8.3566 14.1957 8.77311C14.141 8.33996 14.0111 7.96507 13.8061 7.64853C13.6011 7.33196 13.3755 7.08202 13.1295 6.89876C12.8834 6.7155 12.5964 6.59054 12.2683 6.52389C11.9403 6.45727 11.6054 6.49056 11.2636 6.62387ZM3.49279 9.17296C3.39709 8.70646 3.4176 8.21498 3.55428 7.69846C3.70466 7.16534 3.94386 6.76549 4.2719 6.49891C4.59997 6.21567 4.98953 6.09071 5.44063 6.12404C5.8917 6.15734 6.28126 6.3073 6.60933 6.57388C6.2266 6.45727 5.85069 6.44058 5.48161 6.52389C5.12623 6.60718 4.81867 6.75714 4.55896 6.97373C4.28557 7.19034 4.04639 7.49022 3.84133 7.87343C3.64997 8.25662 3.53377 8.68983 3.49279 9.17296ZM1.42191 12.2219C1.05285 11.8554 0.820477 11.3639 0.724791 10.7474C0.615439 10.1143 0.642777 9.52288 0.806807 8.97307C0.970834 8.40659 1.25788 7.92342 1.66796 7.52354C2.06436 7.12369 2.50861 6.92374 3.00069 6.92374C2.53594 7.14036 2.11904 7.44023 1.74997 7.82345C1.38091 8.19 1.12803 8.5982 0.991338 9.04803C0.868316 9.49787 0.847813 10.0144 0.929825 10.5975C1.01184 11.1806 1.17587 11.7221 1.42191 12.2219ZM3.14422 13.1966C2.8435 13.0467 2.58379 12.7884 2.36508 12.4219C2.16004 12.0387 2.06436 11.6555 2.07803 11.2723C2.10537 10.889 2.24206 10.5308 2.4881 10.1976C2.74782 9.84774 3.02803 9.62283 3.32874 9.52288C3.06904 9.7561 2.87767 10.0393 2.75465 10.3726C2.64529 10.6891 2.58379 11.0057 2.57012 11.3222C2.55645 11.6221 2.59062 11.947 2.67263 12.2969C2.75465 12.6301 2.91184 12.93 3.14422 13.1966ZM7.71653 11.947L7.75752 11.8721C7.68919 11.7721 7.63451 11.6721 7.5935 11.5722C7.66182 11.6555 7.73704 11.7221 7.81904 11.7721C8.07875 11.4056 8.41365 11.1306 8.82371 10.9474C9.24745 10.7641 9.65068 10.7308 10.0334 10.8474C10.3342 10.9474 10.6144 11.139 10.8741 11.4222C10.8467 11.3556 10.8194 11.2889 10.7921 11.2223C11.0108 11.5388 11.2636 11.7638 11.5507 11.897C11.8378 12.0303 12.118 12.097 12.3914 12.097C12.6647 12.097 12.945 12.0303 13.232 11.897C13.519 11.7638 13.7719 11.5388 13.9906 11.2223C13.8813 11.6055 13.6694 11.947 13.355 12.2469C13.0543 12.5468 12.7331 12.6968 12.3914 12.6968C12.0223 12.6968 11.6737 12.5135 11.3457 12.1469C11.496 12.4968 11.5849 12.8467 11.6122 13.1966C11.4755 12.8301 11.291 12.5135 11.0586 12.2469C10.8262 11.9637 10.5802 11.7554 10.3205 11.6221C10.1974 11.8887 10.0266 12.1303 9.80789 12.3469C9.60286 12.5468 9.38415 12.6635 9.15178 12.6968C8.90574 12.7468 8.65286 12.6884 8.39315 12.5218C8.14708 12.3552 7.94207 12.1469 7.77802 11.897C7.76435 11.9137 7.74385 11.9304 7.71653 11.947ZM9.91042 11.4222C9.60969 11.3389 9.27482 11.3222 8.90574 11.3722C8.55033 11.4222 8.20859 11.5722 7.88055 11.8221C8.07191 11.972 8.27011 12.0637 8.47517 12.097C8.69384 12.1303 8.8989 12.1386 9.09026 12.1219C9.28162 12.0886 9.47301 12.0303 9.66437 11.947C9.85573 11.8471 10.0266 11.7138 10.1769 11.5472C10.0949 11.4972 10.0061 11.4555 9.91042 11.4222ZM11.9403 13.2716C12.118 13.0383 12.3572 12.8634 12.6579 12.7468C12.9723 12.6301 13.2593 12.6301 13.519 12.7468C13.7651 12.8801 13.9565 13.1216 14.0932 13.4715C14.2435 13.8214 14.3118 14.1629 14.2982 14.4962C14.2162 14.1796 14.0795 13.9297 13.8881 13.7464C13.7104 13.5465 13.519 13.3965 13.314 13.2966C13.1226 13.1966 12.9039 13.1299 12.6579 13.0966C12.4119 13.0633 12.1726 13.1216 11.9403 13.2716ZM2.40609 16.5454C2.0917 16.5288 1.80465 16.3872 1.54494 16.1206C1.27155 15.8373 1.08702 15.5125 0.991338 15.1459C0.895654 14.7794 0.895654 14.3962 0.991338 13.9963C1.08702 13.5798 1.25788 13.2632 1.50393 13.0467C1.3399 13.3632 1.23055 13.7048 1.17587 14.0713C1.10752 14.4378 1.11436 14.771 1.19637 15.0709C1.26472 15.3708 1.40824 15.6541 1.62695 15.9207C1.84566 16.1872 2.10537 16.3955 2.40609 16.5454ZM5.56364 16.0206C5.29025 16.2206 4.96221 16.3122 4.57946 16.2955C4.19674 16.2789 3.88918 16.1373 3.65681 15.8707C3.41077 15.6208 3.25358 15.2709 3.18522 14.821C3.11688 14.3546 3.14422 13.938 3.26722 13.5715C3.25358 13.9713 3.31507 14.3295 3.45178 14.6461C3.60213 14.9626 3.77301 15.2209 3.96437 15.4208C4.16937 15.6208 4.40861 15.7874 4.68199 15.9207C4.95538 16.0539 5.24924 16.0873 5.56364 16.0206ZM14.5442 14.7461C14.8859 14.7794 15.2208 14.9377 15.5489 15.2209C15.8906 15.5041 16.1093 15.854 16.205 16.2706C16.3144 16.687 16.2939 17.1286 16.1435 17.5951C15.9931 18.0449 15.7744 18.3948 15.4874 18.6447C15.6787 18.2948 15.7881 17.92 15.8154 17.5201C15.8428 17.1202 15.8154 16.762 15.7335 16.4455C15.6514 16.1123 15.5079 15.7957 15.3029 15.4958C15.1115 15.1792 14.8586 14.9293 14.5442 14.7461ZM16.8406 15.8707C17.2371 16.1039 17.5378 16.4788 17.7428 16.9953C17.9615 17.4951 18.0503 18.0199 18.0093 18.5697C17.982 19.1029 17.8248 19.6027 17.5378 20.0692C17.2644 20.5191 16.9158 20.819 16.4921 20.9689C16.8475 20.6524 17.1482 20.2775 17.3942 19.8443C17.6403 19.3945 17.7838 18.9613 17.8248 18.5448C17.8521 18.1116 17.7701 17.6534 17.5788 17.1702C17.401 16.687 17.155 16.2539 16.8406 15.8707ZM3.0622 18.3698C3.19889 17.9033 3.45178 17.5034 3.82083 17.1702C4.18988 16.837 4.57946 16.6787 4.98953 16.6954C5.2219 16.6954 5.4543 16.762 5.68667 16.8953C5.93271 17.0119 6.14458 17.1786 6.32227 17.3952C6.07626 17.0119 5.92585 16.6038 5.8712 16.1706C6.07626 16.6204 6.33594 16.9786 6.65034 17.2452C6.97838 17.5118 7.30647 17.6867 7.63451 17.77C7.92157 17.6368 8.18128 17.6201 8.41365 17.72C8.45466 17.7367 8.49568 17.7617 8.53669 17.795C8.75536 17.745 8.96723 17.6701 9.17229 17.5701C9.37729 17.4535 9.57551 17.3035 9.76688 17.1202C9.71219 17.2369 9.65068 17.3452 9.58235 17.4452C9.7464 17.3285 9.91042 17.2619 10.0744 17.2452C9.91042 17.3452 9.79422 17.4868 9.72589 17.6701C9.67118 17.8533 9.62336 18.0283 9.58235 18.1949C9.54134 18.3781 9.50719 18.5697 9.47982 18.7697C9.46618 18.953 9.514 19.1362 9.62336 19.3195C9.47301 19.2029 9.33631 19.0196 9.2133 18.7697C9.09026 18.5031 9.05609 18.2615 9.11077 18.0449C9.12441 17.9949 9.13811 17.945 9.15178 17.895C9.06976 17.9616 8.97406 18.0283 8.86473 18.0949C9.13811 18.4615 9.28162 18.8863 9.29532 19.3695C9.2133 19.0863 9.08343 18.8697 8.90574 18.7197C8.72805 18.5531 8.5435 18.4198 8.35213 18.3198C8.06508 18.4031 7.79172 18.4198 7.53198 18.3698C7.42264 18.3365 7.31328 18.2865 7.20394 18.2199C7.09458 18.2699 6.99208 18.3281 6.89638 18.3948C6.95106 18.3115 7.01258 18.2365 7.08091 18.1699C6.90322 18.0532 6.7392 17.9117 6.58882 17.745C6.7255 17.945 6.82803 18.1615 6.89638 18.3948C6.63667 18.0283 6.32911 17.7534 5.97373 17.5701C5.63199 17.3868 5.30392 17.2952 4.98953 17.2952C4.66149 17.2786 4.31978 17.3618 3.96437 17.5451C3.62263 17.7284 3.32191 18.0033 3.0622 18.3698ZM4.00538 21.8186C3.69099 21.8519 3.36292 21.7603 3.02119 21.5437C2.67947 21.3271 2.44026 21.0356 2.30357 20.669C2.16688 20.3192 2.14638 19.9193 2.24206 19.4694C2.33774 19.0196 2.50177 18.6531 2.73415 18.3698C2.59746 18.7197 2.53594 19.0779 2.54961 19.4445C2.57695 19.811 2.64529 20.1442 2.75465 20.4441C2.864 20.7274 3.02119 21.0023 3.22623 21.2688C3.43127 21.5187 3.69099 21.702 4.00538 21.8186ZM15.4259 19.0446C15.5899 19.3112 15.6924 19.6444 15.7335 20.0442C15.7744 20.4441 15.7266 20.7773 15.5899 21.0439C15.4396 21.3271 15.2072 21.5271 14.8928 21.6437C14.5784 21.7603 14.2845 21.777 14.0111 21.6937C14.2845 21.6603 14.5169 21.5521 14.7082 21.3688C14.8996 21.1688 15.05 20.9523 15.1593 20.719C15.2824 20.5024 15.378 20.2525 15.4464 19.9692C15.5147 19.6694 15.5079 19.3611 15.4259 19.0446ZM13.7446 21.9436C13.7582 22.2601 13.6967 22.5934 13.5601 22.9432C13.437 23.2931 13.2525 23.5264 13.0064 23.643C12.7741 23.7763 12.5075 23.7846 12.2068 23.668C11.9061 23.5514 11.6669 23.3764 11.4892 23.1432C11.7215 23.2931 11.9539 23.3514 12.1863 23.3181C12.4187 23.2681 12.6306 23.1932 12.8219 23.0932C13.0133 22.9932 13.1978 22.8516 13.3755 22.6683C13.5532 22.4851 13.6762 22.2435 13.7446 21.9436ZM7.28597 23.3431C7.08091 23.6596 6.78702 23.8929 6.40429 24.0429C6.03524 24.2095 5.69348 24.2261 5.37911 24.0928C5.06471 23.9429 4.80503 23.668 4.59997 23.2681C4.39494 22.8683 4.28557 22.4601 4.2719 22.0435C4.39494 22.4268 4.57266 22.7433 4.805 22.9932C5.05104 23.2265 5.29711 23.4014 5.54313 23.518C5.80287 23.618 6.08306 23.668 6.38379 23.668C6.69819 23.668 6.99888 23.5597 7.28597 23.3431ZM11.1611 23.2432C11.0518 23.6763 10.8262 24.0595 10.4845 24.3927C10.1564 24.7259 9.80789 24.9009 9.43881 24.9176C9.06976 24.9342 8.70754 24.7843 8.35213 24.4677C8.0104 24.1678 7.76435 23.8096 7.61401 23.3931C7.87372 23.7263 8.16077 23.9679 8.47517 24.1178C8.80321 24.2678 9.11761 24.3344 9.4183 24.3178C9.71906 24.3011 10.0266 24.2011 10.341 24.0179C10.669 23.8512 10.9424 23.593 11.1611 23.2432ZM9.52083 25.3674C9.23381 25.9505 8.81007 26.367 8.2496 26.617C7.70284 26.8669 7.15607 26.9336 6.60933 26.8169C6.06256 26.7003 5.56364 26.4004 5.11256 25.9172C4.66149 25.4507 4.3881 24.8843 4.29241 24.2178C4.57946 24.8009 4.93487 25.3091 5.3586 25.7423C5.78237 26.1921 6.21293 26.467 6.65034 26.567C7.08774 26.667 7.56616 26.6003 8.08559 26.367C8.61868 26.1338 9.0971 25.8006 9.52083 25.3674Z" fill="#F73A93"/>
<path d="M17.1275 4.92482C17.2643 4.29166 17.565 3.78354 18.0297 3.40033C18.5081 3.00045 19.007 2.77554 19.5265 2.72556C20.0596 2.67557 20.579 2.80886 21.0847 3.12541C21.6042 3.42531 21.9732 3.86683 22.1919 4.44997C21.8229 3.98344 21.3923 3.60857 20.9002 3.32536C20.4218 3.04212 19.9707 2.92548 19.547 2.97547C19.1232 3.00879 18.6926 3.20872 18.2553 3.57527C17.8178 3.9418 17.4419 4.39164 17.1275 4.92482ZM18.3988 6.39929C18.5355 5.93276 18.7884 5.53291 19.1574 5.19969C19.5401 4.84982 19.9434 4.67488 20.3671 4.67488C20.7772 4.65821 21.1668 4.82484 21.5358 5.17471C21.9186 5.50793 22.1851 5.91613 22.3355 6.39929C22.0621 6.01611 21.7477 5.73287 21.3923 5.54958C21.0369 5.34965 20.6952 5.25802 20.3671 5.27468C20.0254 5.27468 19.6768 5.36631 19.3214 5.54958C18.966 5.73287 18.6585 6.01611 18.3988 6.39929ZM22.643 6.47429C22.8344 6.25767 23.0805 6.10774 23.3812 6.02442C23.6819 5.92447 23.9484 5.94111 24.1808 6.07438C24.4131 6.22435 24.584 6.47429 24.6934 6.82415C24.8164 7.17401 24.8643 7.49893 24.8369 7.7988C24.7822 7.49893 24.666 7.25733 24.4883 7.07404C24.3243 6.87414 24.1466 6.72418 23.9553 6.6242C23.7776 6.50759 23.5725 6.4243 23.3401 6.37431C23.1214 6.32432 22.889 6.35765 22.643 6.47429ZM15.3232 8.64852C15.2549 8.24867 15.2822 7.82381 15.4052 7.37397C15.5419 6.90744 15.7538 6.55758 16.0408 6.32432C16.3279 6.10774 16.6696 6.02445 17.066 6.07438C17.4625 6.10774 17.7973 6.25767 18.0707 6.52428C17.7426 6.39095 17.4214 6.36597 17.107 6.44928C16.8063 6.53257 16.5398 6.65755 16.3074 6.82415C16.0751 7.00741 15.8632 7.25733 15.6718 7.57387C15.4941 7.8738 15.3779 8.232 15.3232 8.64852ZM25.083 8.0987C25.4657 8.13203 25.8279 8.31529 26.1696 8.64852C26.525 8.98174 26.7506 9.3816 26.8463 9.84812C26.942 10.298 26.9078 10.7728 26.7437 11.2726C26.5797 11.7724 26.3337 12.1557 26.0056 12.4222C26.238 12.039 26.3747 11.6308 26.4157 11.1976C26.4704 10.7644 26.4567 10.3646 26.3747 9.99803C26.2927 9.63151 26.1423 9.2733 25.9236 8.92344C25.7049 8.57352 25.4247 8.29865 25.083 8.0987ZM15.3232 12.1723C15.0635 12.0723 14.8175 11.8807 14.5851 11.5975C14.3527 11.3143 14.2229 11.006 14.1955 10.6728C14.1819 10.3396 14.2707 10.0064 14.4621 9.67315C14.6535 9.33995 14.879 9.1067 15.1387 8.97343C14.9337 9.20668 14.8038 9.47323 14.7491 9.77313C14.6944 10.073 14.6739 10.3562 14.6876 10.6228C14.7013 10.8894 14.7559 11.1643 14.8516 11.4475C14.9473 11.7308 15.1045 11.9724 15.3232 12.1723ZM27.6254 10.8728C28.0219 11.3059 28.261 11.8641 28.3431 12.5472C28.4252 13.2136 28.3703 13.8467 28.1789 14.4465C27.9739 15.0463 27.6459 15.5545 27.1948 15.971C26.7574 16.3708 26.2722 16.5624 25.7391 16.5458C26.2448 16.3459 26.7028 16.0543 27.1128 15.6711C27.5366 15.2713 27.8304 14.8297 27.9945 14.3466C28.1449 13.88 28.1789 13.3302 28.0969 12.6971C28.0288 12.0473 27.8715 11.4392 27.6254 10.8728ZM18.7268 15.5211C18.5765 15.1213 18.5286 14.6715 18.5833 14.1716C18.638 13.6551 18.7952 13.2469 19.0549 12.947C19.2189 12.7304 19.4376 12.5722 19.711 12.4722C19.547 12.3056 19.424 12.0723 19.3419 11.7724C19.2599 11.4725 19.2326 11.1893 19.2599 10.9227C19.3146 11.206 19.4171 11.4392 19.5675 11.6225C19.7315 11.7891 19.8955 11.9224 20.0596 12.0224C20.2373 12.139 20.4286 12.2306 20.6337 12.2973C20.8524 12.3473 21.0711 12.3139 21.2898 12.1973C21.1941 12.2973 21.0847 12.3889 20.9617 12.4722C21.0301 12.4889 21.0984 12.5139 21.1668 12.5472C21.0301 12.5472 20.9002 12.5555 20.7772 12.5722C20.6132 12.6388 20.4628 12.6721 20.3261 12.6721C19.9707 12.8054 19.6632 13.0387 19.4035 13.3719C19.1984 13.6051 19.0275 13.9134 18.8909 14.2966C18.7542 14.6631 18.6995 15.0713 18.7268 15.5211ZM19.0754 11.2726C19.0207 11.7225 18.8567 12.1473 18.5833 12.5472C18.3099 12.9304 17.9955 13.172 17.6401 13.2719C17.2848 13.3719 16.9088 13.3136 16.5124 13.097C16.1297 12.8637 15.8427 12.5555 15.6513 12.1723C15.9383 12.4555 16.2527 12.6305 16.5945 12.6971C16.9362 12.7638 17.2506 12.7554 17.5376 12.6721C17.8247 12.6055 18.1049 12.4555 18.3783 12.2223C18.6653 11.9891 18.8977 11.6725 19.0754 11.2726ZM17.0865 14.0466C16.8268 14.4965 16.4646 14.8047 15.9999 14.9713C15.5351 15.138 15.084 15.1546 14.6466 15.0213C14.2092 14.8714 13.8196 14.5881 13.4779 14.1716C13.1499 13.7384 12.9653 13.2469 12.9243 12.6971C13.1157 13.197 13.3685 13.6468 13.6829 14.0466C14.011 14.4299 14.3527 14.6715 14.7081 14.7714C15.0498 14.888 15.4394 14.8797 15.8768 14.7464C16.3142 14.5965 16.7175 14.3632 17.0865 14.0466ZM25.9236 12.8221C26.1013 13.1053 26.2038 13.4635 26.2311 13.8967C26.2585 14.3132 26.1901 14.6715 26.0261 14.9713C25.8621 15.2546 25.6092 15.4545 25.2675 15.5711C24.9394 15.6877 24.6319 15.7044 24.3448 15.6211C24.6319 15.5878 24.8848 15.4712 25.1035 15.2713C25.3222 15.0713 25.493 14.8547 25.6161 14.6215C25.7528 14.3882 25.8552 14.1133 25.9236 13.7968C26.0056 13.4802 26.0056 13.1553 25.9236 12.8221ZM15.6308 18.2952C15.5214 17.862 15.5283 17.3955 15.6513 16.8957C15.7743 16.3958 15.9862 16.0126 16.2869 15.7461C16.5739 15.4795 16.9294 15.3545 17.3531 15.3712C17.7905 15.3712 18.1664 15.4962 18.4808 15.7461C18.1117 15.6461 17.7563 15.6544 17.4146 15.7711C17.0865 15.871 16.8063 16.021 16.5739 16.2209C16.3279 16.4375 16.1161 16.7291 15.9383 17.0956C15.7607 17.4455 15.6581 17.8453 15.6308 18.2952ZM21.7203 18.4202C21.7477 18.3535 21.7819 18.2869 21.8229 18.2202C21.7819 18.1869 21.7409 18.1536 21.6998 18.1203C21.7545 18.1369 21.8024 18.1536 21.8434 18.1702C22.0484 17.8037 22.3218 17.5038 22.6635 17.2706C23.0052 17.0373 23.3538 16.9373 23.7092 16.9706L23.8117 16.9956C23.9894 16.6458 24.0851 16.2792 24.0988 15.896C24.1944 16.2626 24.2013 16.6624 24.1193 17.0956C24.42 17.2289 24.6934 17.4622 24.9394 17.7953C25.1855 18.1119 25.3495 18.4618 25.4315 18.845C25.2401 18.5118 25.0078 18.2452 24.7344 18.0453C24.4747 17.8453 24.2081 17.7037 23.9348 17.6204C23.8527 17.837 23.7434 18.0036 23.6067 18.1203C23.3743 18.3368 23.0941 18.4535 22.7661 18.4701C22.4517 18.4701 22.1578 18.3952 21.8844 18.2452C21.8297 18.2952 21.775 18.3535 21.7203 18.4202ZM23.2991 17.6454C23.3265 17.6121 23.3538 17.5871 23.3812 17.5704C23.1488 17.5704 22.9095 17.6204 22.6635 17.7204C22.4175 17.8204 22.1851 17.9703 21.9664 18.1702C22.2261 18.1869 22.4722 18.1453 22.7045 18.0453C22.9369 17.9453 23.1351 17.812 23.2991 17.6454ZM14.1135 21.5441C13.9085 21.2942 13.765 20.9609 13.6829 20.5444C13.6146 20.1279 13.6488 19.7614 13.7855 19.4448C13.9085 19.1282 14.1272 18.8867 14.4416 18.7201C14.7696 18.5535 15.0772 18.4951 15.3642 18.5451C15.0772 18.6284 14.838 18.7867 14.6466 19.0199C14.4689 19.2366 14.3254 19.4698 14.216 19.7197C14.1067 19.9696 14.0315 20.2528 13.9905 20.5694C13.9632 20.886 14.0042 21.2109 14.1135 21.5441ZM25.4315 18.845C25.6502 18.8117 25.8894 18.8533 26.1491 18.9699C26.4225 19.0866 26.6071 19.2615 26.7027 19.4948C26.8121 19.7447 26.8258 20.0363 26.7437 20.3695C26.6754 20.686 26.566 20.9443 26.4157 21.1442C26.4977 20.8943 26.5114 20.6527 26.4567 20.4195C26.4157 20.1862 26.3542 19.9696 26.2722 19.7697C26.1901 19.5864 26.0808 19.4032 25.9441 19.2199C25.8211 19.0366 25.6502 18.9117 25.4315 18.845ZM14.6876 25.1179C14.2229 25.2012 13.7718 25.0845 13.3344 24.768C12.9106 24.4681 12.5894 24.0682 12.3707 23.5684C12.152 23.0686 12.0563 22.5188 12.0837 21.919C12.0973 21.3025 12.2614 20.7777 12.5757 20.3445C12.398 20.8777 12.3092 21.4275 12.3092 21.9939C12.2955 22.5604 12.3775 23.0436 12.5552 23.4434C12.7329 23.8433 13.02 24.1932 13.4164 24.4931C13.8128 24.793 14.2365 25.0012 14.6876 25.1179ZM26.4157 21.5441C26.4704 21.8606 26.4499 22.2105 26.3542 22.5937C26.2722 22.9769 26.1218 23.2518 25.9031 23.4184C25.6844 23.6017 25.411 23.6684 25.083 23.6184C24.7686 23.5684 24.502 23.4434 24.2833 23.2435C24.543 23.3435 24.7891 23.3518 25.0214 23.2685C25.2538 23.1852 25.4589 23.0686 25.6366 22.9186C25.8142 22.7853 25.9783 22.602 26.1286 22.3688C26.2927 22.1355 26.3884 21.8606 26.4157 21.5441ZM16.4919 23.2435C16.3006 23.4768 16.0477 23.6517 15.7333 23.7683C15.4189 23.8849 15.1319 23.8766 14.8721 23.7433C14.6261 23.61 14.4347 23.3601 14.2981 22.9936C14.1614 22.627 14.0998 22.2772 14.1135 21.9439C14.1819 22.2605 14.3117 22.5188 14.5031 22.7187C14.6944 22.9186 14.8858 23.0769 15.0772 23.1935C15.2822 23.2935 15.5078 23.3684 15.7538 23.4184C15.9999 23.4518 16.2459 23.3935 16.4919 23.2435ZM20.8387 23.2435C20.6883 23.7267 20.4218 24.1432 20.0391 24.4931C19.6563 24.8429 19.2531 25.0179 18.8293 25.0179C18.4056 25.0179 18.0024 24.8429 17.6197 24.4931C17.2369 24.1432 16.9704 23.7267 16.82 23.2435C17.0934 23.6434 17.4078 23.9349 17.7631 24.1182C18.1322 24.3181 18.4876 24.4181 18.8293 24.4181C19.1711 24.4181 19.5196 24.3181 19.875 24.1182C20.2441 23.9349 20.5653 23.6434 20.8387 23.2435ZM23.9553 23.2435C23.8596 23.5767 23.675 23.8766 23.4017 24.1432C23.1283 24.4264 22.848 24.5681 22.561 24.5681C22.2739 24.5681 21.9937 24.4264 21.7203 24.1432C21.447 23.8766 21.2625 23.5767 21.1668 23.2435C21.3581 23.5101 21.5768 23.6933 21.8229 23.7933C22.0826 23.9099 22.3286 23.9683 22.561 23.9683C22.7934 23.9683 23.0326 23.9099 23.2786 23.7933C23.5383 23.6933 23.7639 23.5101 23.9553 23.2435ZM27.6049 24.2181C27.5092 24.8179 27.2564 25.3261 26.8463 25.7426C26.4362 26.1592 25.9851 26.4174 25.493 26.5174C25.0009 26.6173 24.502 26.5424 23.9963 26.2924C23.5042 26.0426 23.1351 25.651 22.889 25.1179C23.2718 25.5177 23.6956 25.8259 24.1603 26.0426C24.625 26.2758 25.0556 26.3508 25.452 26.2675C25.8484 26.2008 26.238 25.9676 26.6207 25.5677C27.0171 25.1845 27.3452 24.7347 27.6049 24.2181Z" fill="#F73A93"/>
<path d="M17.2337 16.3949C17.4321 16.3949 17.2284 16.3712 17.1805 16.4021C17.1367 16.4304 17.1392 16.5664 17.1835 16.5895C17.2795 16.6397 17.437 16.5637 17.4939 16.4598C17.5089 16.4325 17.403 16.4934 17.3875 16.5066C17.3157 16.5682 17.3009 16.6924 17.2929 16.7914C17.2671 17.1108 17.6599 17.2053 17.8192 17.0112C17.9204 16.8878 17.6978 16.8033 17.627 16.9103C17.4477 17.1811 17.0914 18.6696 17.6536 18.6113C17.8859 18.5872 18.1648 17.8877 17.8399 17.8293C17.6549 17.796 17.5742 17.9745 17.559 18.1752C17.5487 18.311 17.51 18.5125 17.6063 18.6005" stroke="white" stroke-width="0.0945626" stroke-linecap="round"/>
<path d="M16.6221 20.8381C16.8796 20.569 17.1757 20.3508 17.441 20.0921C17.4491 20.0842 17.5575 19.979 17.5475 19.9695C17.4972 19.9219 17.3198 20.2136 17.2932 20.247C17.1664 20.4067 17.051 20.5772 16.9207 20.7336C16.8896 20.7709 16.7547 20.9692 16.7669 20.8056C16.7814 20.6118 16.9412 20.3546 17.0271 20.1893C17.0805 20.0867 17.2513 19.8022 17.2297 19.9209C17.2053 20.0545 17.1027 20.2002 17.0478 20.3191C17.021 20.3771 16.868 20.6602 16.9665 20.429C17.1462 20.0073 17.4138 19.6471 17.6673 19.2902C17.6684 19.2885 17.8106 19.1101 17.8106 19.119C17.8106 19.2734 17.6152 19.5093 17.5475 19.6199C17.3835 19.8881 17.2249 20.1938 17.033 20.4344C16.9868 20.4925 17.0199 20.4261 17.033 20.402C17.1201 20.2415 17.211 20.0833 17.3021 19.9263C17.4851 19.6111 17.6899 19.3094 17.9141 19.0361C18.1599 18.7366 17.7554 19.2915 17.7131 19.3479C17.561 19.5506 17.4438 19.8495 17.2755 20.0254C17.1834 20.1216 17.4427 19.8112 17.5268 19.7046C17.5729 19.6462 17.8836 19.3415 17.8786 19.3587C17.7953 19.6489 17.6074 19.9327 17.4632 20.1821C17.3773 20.3309 17.251 20.5066 17.4381 20.2668C17.4747 20.22 17.7219 19.8441 17.787 19.8758C17.8223 19.893 17.7461 20.0742 17.7293 20.1028C17.6079 20.31 17.9516 19.6714 18.0738 19.465C18.1015 19.4182 18.248 19.2398 18.1802 19.2812C18.0838 19.3399 18.0856 19.279 18.0856 19.1766C18.0856 19.0508 18.0938 18.9317 18.1181 18.8091C18.1309 18.7449 18.0159 18.8903 17.9807 18.9226C17.8828 19.012 18.0046 18.7919 18.0206 18.7622C18.1189 18.5795 18.1875 18.5489 18.0398 18.7496C17.8965 18.9442 17.7436 19.1306 17.5978 19.3226C17.521 19.4236 17.497 19.4473 17.5919 19.3317C17.6594 19.2493 17.8772 19.0223 17.8018 19.0938C17.7838 19.1108 17.6483 19.2099 17.6392 19.1623C17.5968 18.9411 17.8498 18.5862 17.9408 18.4199C17.9517 18.3998 18.1052 18.0934 18.0797 18.2108C18.0194 18.4885 17.6209 19.2146 17.7308 18.9604C17.8481 18.6894 18.0153 18.4367 18.1595 18.1856C18.2145 18.0899 18.169 18.1604 18.1388 18.1964C18.0577 18.2934 17.9755 18.3826 17.8993 18.4865C17.7985 18.6241 17.6589 18.7734 17.5992 18.9478C17.4984 19.2427 17.9131 18.4354 18.0561 18.1676C18.146 17.9991 18.2365 17.8308 18.3177 17.6558C18.3387 17.6107 18.3952 17.4837 18.3576 17.5081C18.1844 17.6207 18.009 17.8898 17.8786 18.0667C17.6908 18.3214 17.8786 18.0282 17.9467 17.9333C17.9605 17.9141 18.1922 17.5343 18.1891 17.5333C18.1199 17.5103 17.8266 18.0898 17.784 18.164C17.7437 18.2343 17.7007 18.3122 17.6717 18.391C17.6283 18.5089 17.807 18.1918 17.8683 18.0865C17.9842 17.8875 18.1273 17.6632 18.2113 17.4414C18.2529 17.3315 18.1107 17.4688 18.1049 17.4739C17.9883 17.5745 17.8808 17.6891 17.7708 17.8C17.6832 17.8882 17.4734 18.1926 17.5046 18.0595C17.5383 17.9161 17.782 17.733 17.8713 17.6306C17.9403 17.5514 18.1652 17.3385 18.0901 17.409C17.8434 17.6402 17.6297 17.953 17.4248 18.2361C17.3595 18.3263 17.0639 18.7288 17.2785 18.4C17.4384 18.1549 17.6163 17.9225 17.7338 17.6414C17.7957 17.4933 17.4822 17.907 17.4529 17.9513C17.3802 18.0611 17.1448 18.3179 17.1513 18.4811C17.1564 18.6093 17.739 18.0394 17.7752 17.9982C17.891 17.8664 18.0005 17.7265 18.1004 17.5766C18.2164 17.4024 18.1152 17.5247 18.0502 17.6072C17.8378 17.8763 17.6659 18.1547 17.5165 18.4793C17.4127 18.7047 17.5076 18.5936 17.5845 18.4613C17.6947 18.2715 17.8234 18.0666 17.8949 17.8486C17.9421 17.7048 17.789 18.1313 17.7515 18.2793C17.7424 18.3152 17.711 18.5204 17.7722 18.4955C17.9297 18.4315 18.0268 18.2 18.0738 18.0234C18.096 17.94 18.2028 17.4478 18.1122 17.7892C18.0656 17.965 17.9381 18.4912 18.0117 18.3298C18.1442 18.039 18.2215 17.7162 18.3872 17.4468C18.4884 17.2824 18.2269 17.8085 18.1388 17.9838C18.0073 18.2456 17.8554 18.4916 17.7515 18.773C17.6283 19.1068 18.0421 18.5844 18.0841 18.5315C18.228 18.3509 18.4012 18.1147 18.4685 17.8685C18.5207 17.6778 18.2361 17.8097 18.1921 17.8432C18.018 17.9759 17.8867 18.1803 17.7959 18.4018C17.7254 18.5737 17.7294 18.63 17.8461 18.4631C17.9654 18.2925 18.3933 17.4824 17.9319 17.609C17.7928 17.6471 17.6445 17.7805 17.5593 17.9189C17.4588 18.0823 17.6585 17.9701 17.7057 17.9243C17.9175 17.7191 18.0925 17.4424 18.1965 17.1369C18.2825 16.8841 17.9896 16.9497 17.8831 17.0053C17.6467 17.1288 17.4077 17.3952 17.2651 17.6558C17.2317 17.717 17.1393 17.8798 17.1853 17.9639C17.2422 18.068 17.5054 17.9164 17.5549 17.8793C17.6968 17.7728 17.8717 17.6015 17.9348 17.4036C17.9634 17.3142 17.8691 17.3026 17.821 17.3026C17.669 17.3026 17.6283 17.6332 17.6126 17.7676C17.5579 18.2341 17.8459 17.6985 17.8668 17.4972C17.8739 17.4286 17.902 17.2365 17.8136 17.2125C17.7031 17.1826 17.6134 17.589 17.5948 17.6774C17.5701 17.7954 17.4714 18.1187 17.546 18.0378C17.7522 17.8145 17.8783 17.3374 17.9585 17.0288C17.9659 17.0004 18.0561 16.6796 17.9599 16.7458C17.8032 16.8539 17.7091 17.1577 17.6717 17.3603C17.6414 17.5244 17.6533 17.7027 17.8314 17.663C18.0754 17.6087 18.3544 17.3047 18.4582 17.036C18.5077 16.9075 18.5646 16.6321 18.3991 16.5963C18.2682 16.568 18.0704 16.5622 17.9585 16.6612C17.8613 16.7472 17.6539 17.4947 17.8195 17.418C17.934 17.365 17.9758 17.1726 18.0058 17.0432C18.0495 16.8548 17.8723 16.8684 17.7663 16.8846C17.6346 16.9047 17.5381 17.0686 17.4869 17.2072C17.4757 17.2375 17.4062 17.4379 17.478 17.427C17.6566 17.3998 17.9108 16.7316 17.648 16.7909C17.5079 16.8225 17.0548 17.3391 17.3523 17.418C17.5642 17.4741 17.698 17.2601 17.7811 17.0576C17.8467 16.8977 17.9453 16.6093 17.7219 16.6233C17.4686 16.6391 17.0927 17.0156 17.1838 17.3765C17.2113 17.4855 17.4054 17.3692 17.4381 17.3423C17.6472 17.1704 17.7875 16.8676 17.8565 16.5765C17.9393 16.227 17.7069 16.3245 17.5386 16.4684C17.3484 16.6309 17.172 16.8444 17.0774 17.108C17.0473 17.1919 17.0073 17.386 17.135 17.3585C17.3547 17.3113 17.5553 16.9924 17.6421 16.7585C17.6723 16.6771 17.7753 16.3966 17.648 16.3693C17.496 16.3365 17.3766 16.4881 17.2991 16.6287C17.2368 16.742 16.947 17.5531 17.2725 17.2198C17.4561 17.0319 17.4957 16.6954 17.1956 16.7206C17.0929 16.7293 16.8796 16.8168 16.968 16.9783" stroke="white" stroke-width="0.157604" stroke-linecap="round"/>
<path d="M17.6202 16.3017C17.5405 16.3017 17.4566 16.2922 17.3782 16.3122C17.358 16.3173 17.3238 16.3279 17.3537 16.2942C17.4287 16.2099 17.5129 16.1271 17.6046 16.0712C17.608 16.0692 17.6342 16.0534 17.6202 16.0714C17.5738 16.1313 17.5184 16.1826 17.468 16.2372C17.4294 16.2789 17.3914 16.3212 17.3527 16.3628C17.3469 16.369 17.3293 16.3861 17.3367 16.3835C17.3507 16.3785 17.3642 16.3661 17.3756 16.3558C17.388 16.3446 17.4058 16.3328 17.413 16.3153C17.4416 16.2455 17.2847 16.2539 17.2633 16.2533C17.2452 16.2529 17.1969 16.2526 17.1776 16.2526C17.1698 16.2526 17.162 16.2526 17.1541 16.2528C17.1507 16.2528 17.142 16.2506 17.1439 16.2541C17.147 16.2597 17.1757 16.2402 17.1776 16.2389C17.2072 16.2195 17.2349 16.1948 17.2596 16.1671C17.2723 16.1527 17.2977 16.1268 17.3014 16.1042C17.3042 16.087 17.2721 16.1057 17.2591 16.1131C17.2225 16.1341 17.1876 16.1584 17.1569 16.1906C17.1371 16.2113 17.1172 16.234 17.1048 16.2623C17.1028 16.2667 17.0906 16.2922 17.1023 16.2903C17.1258 16.2867 17.1483 16.2619 17.1658 16.2448C17.1954 16.2158 17.224 16.184 17.2422 16.1427C17.2701 16.0793 17.1958 16.0973 17.1645 16.0987C17.1591 16.099 17.1038 16.1018 17.1038 16.1193C17.1038 16.1457 17.1483 16.1088 17.1522 16.104C17.1595 16.0951 17.1783 16.0562 17.1637 16.0476C17.1385 16.033 17.0916 16.0394 17.0664 16.0492C17.059 16.0522 17.0241 16.0824 17.041 16.0664C17.0539 16.054 17.065 16.0388 17.0766 16.0247C17.09 16.0084 17.1064 15.9941 17.1185 15.9764C17.1374 15.9486 17.0763 15.9827 17.0709 15.9861C17.0567 15.9949 17.0199 16.0309 17.0296 16.0155C17.0331 16.0101 17.0564 15.9893 17.0552 15.9834C17.0542 15.9782 17.0212 15.9984 17.0177 15.9999C17.0156 16.0008 17.0013 16.0077 17.009 16.0002C17.0158 15.9935 17.0079 15.9947 17.0076 15.9896C17.0071 15.9798 17.0078 15.9809 17.0004 15.9789C16.9958 15.9777 16.9953 15.9689 16.9903 15.9686C16.985 15.9682 16.9681 15.9835 16.9846 15.9729C16.992 15.9681 16.9957 15.9546 17.0047 15.9546" stroke="white" stroke-width="0.157604" stroke-linecap="round"/>
<path d="M16.9789 16.0495C16.9789 16.0413 16.9789 16.0331 16.9789 16.0249C16.9789 16.0151 16.9846 16.0083 16.9846 15.9986C16.9846 15.9949 16.9864 15.9772 16.983 15.9761C16.9766 15.9738 16.9735 15.9733 16.9702 15.9653" stroke="white" stroke-width="0.157604" stroke-linecap="round"/>
<path d="M14.2417 19.0106C14.2398 19.0953 14.2115 20.0941 14.2398 20.0904C14.2804 20.0851 14.3238 19.9784 14.337 19.9487C14.425 19.7515 14.4621 19.5273 14.4855 19.3067C14.5101 19.0758 14.618 18.5104 14.336 18.4417C14.1265 18.3906 14.0454 18.6652 13.9978 18.862C13.9167 19.1975 13.8572 19.5751 13.8835 19.9279C13.9049 20.214 14.0954 20.086 14.1388 19.8884C14.1629 19.7786 14.1374 19.6863 14.0274 19.6863C13.8859 19.6863 13.7846 19.9252 13.7311 20.0556C13.7006 20.1299 13.6281 20.312 13.7311 20.3552C13.8947 20.4237 13.997 20.2271 14.0588 20.0765C14.1081 19.9563 14.2796 19.3473 14.0178 19.4112C13.8652 19.4484 13.787 19.9454 13.8683 20.0881C13.9831 20.2897 14.0198 19.6849 14.0188 19.6376C14.0114 19.2953 13.7347 19.6243 13.6787 19.7607C13.6431 19.8474 13.6473 20.0743 13.7711 20.0312C13.8907 19.9895 13.9996 19.4892 13.8302 19.4541C13.6561 19.4181 13.6075 19.7964 13.5939 19.9418C13.5929 19.9524 13.5815 20.1008 13.593 20.1032C13.6839 20.1217 13.8212 19.6782 13.8445 19.6109C13.8576 19.5726 13.9659 19.2694 13.8988 19.2405C13.855 19.2217 13.8382 19.2934 13.8302 19.3287C13.7853 19.5251 13.8384 20.138 13.8721 19.9383C13.8997 19.7747 13.8726 19.6013 13.8854 19.4355C13.8877 19.4058 13.916 19.2022 13.8883 19.3299C13.8489 19.5112 13.7899 19.6808 13.7654 19.8675C13.7428 20.0394 13.6947 20.2791 13.7444 20.4504C13.7558 20.4894 13.791 20.5053 13.8035 20.4597C13.8301 20.3625 13.8182 20.2228 13.8092 20.1229C13.8069 20.0971 13.7642 19.9553 13.7625 19.9685C13.7406 20.1419 13.7656 20.3514 13.7968 20.52C13.808 20.5803 13.9151 20.9742 13.9931 20.9531C14.121 20.9185 13.9935 20.4812 13.9197 20.4202C13.8695 20.3786 13.8815 20.4901 13.8826 20.5177C13.8895 20.6941 13.9684 20.8707 14.0188 21.0344C14.0226 21.047 14.1051 21.2532 14.1178 21.1772C14.1331 21.0864 14.1288 20.9732 14.0836 20.8962C14.0333 20.8108 13.8992 20.6921 13.8854 20.8637C13.8724 21.0259 13.8912 21.2226 13.9511 21.3688C13.9681 21.41 14.0879 21.6309 14.0674 21.4594C14.0523 21.3338 14.0008 21.197 13.9464 21.089C13.9405 21.0773 13.8669 20.9618 13.8654 20.9682C13.8529 21.0217 13.8763 21.0784 13.8988 21.1215C13.9197 21.1618 13.9498 21.2803 13.9674 21.2376C13.9892 21.1844 13.938 21.0588 13.9226 21.0147C13.879 20.89 13.8325 20.7591 13.7654 20.6501C13.7346 20.6001 13.7443 20.6726 13.7549 20.6942C13.8011 20.7879 13.8616 20.8746 13.915 20.9624C13.9265 20.9814 13.973 21.0704 13.9978 21.0704C14.0129 21.0704 13.9874 21.0358 13.9807 21.0193C13.9507 20.9461 13.9212 20.873 13.8892 20.801C13.8461 20.7041 13.7996 20.5791 13.7311 20.505C13.7071 20.479 13.739 20.685 13.7625 20.7209C13.8288 20.8218 13.8671 20.6758 13.8911 20.6083C13.9974 20.3093 14.0638 19.9884 14.156 19.6829C14.2426 19.3958 14.3373 19.1129 14.4265 18.8271C14.4339 18.8036 14.499 18.6369 14.4436 18.6344C14.281 18.6271 14.2272 18.818 14.2112 18.985C14.204 19.0605 14.2358 19.1038 14.296 19.1232C14.4162 19.162 14.5247 19.0631 14.5903 18.9479C14.6568 18.8312 14.6312 18.772 14.5142 18.7691C14.4034 18.7663 14.3107 18.819 14.2274 18.9061C14.1602 18.9763 14.1029 19.0469 14.0912 19.1569C14.0843 19.2209 14.0685 19.3467 14.1464 19.345C14.3119 19.3413 14.5212 18.9805 14.4875 18.7783C14.4757 18.708 14.3513 18.7143 14.3093 18.7203C14.1838 18.7383 14.1119 18.9035 14.0712 19.0327C14.043 19.1221 13.9878 19.2713 14.0435 19.3612C14.0905 19.4369 14.1565 19.4341 14.2188 19.3891C14.3336 19.3063 14.4171 19.1468 14.457 18.9943C14.4756 18.9229 14.5342 18.6975 14.457 18.6437C14.3431 18.5644 14.2588 18.7827 14.2588 18.8852C14.2588 19.2149 14.5757 19.0315 14.6694 18.8736C14.7376 18.7587 14.7989 18.6086 14.7618 18.4625C14.7421 18.3851 14.6638 18.4045 14.6123 18.4045C14.5926 18.4045 14.5676 18.426 14.596 18.4463C14.6938 18.5161 14.8595 18.4503 14.9523 18.4045C14.9696 18.3959 15.1256 18.3024 15.12 18.3011C15.0155 18.278 14.8908 18.3443 14.799 18.3952C14.7214 18.4382 14.6181 18.4945 14.558 18.5717C14.5238 18.6154 14.7182 18.6283 14.7313 18.6297C14.8181 18.6391 14.9062 18.6344 14.9933 18.6344C15.0655 18.6344 14.9248 18.6379 14.9161 18.6391C14.8143 18.652 14.7096 18.6861 14.6132 18.7284C14.5049 18.776 14.7491 18.7473 14.7618 18.7447C14.9015 18.7163 15.0421 18.6564 15.1695 18.581C15.1989 18.5636 15.2908 18.5299 15.2581 18.5299C15.2269 18.5299 14.9855 18.5299 15.099 18.5299C15.2212 18.5299 15.1381 18.4309 15.0552 18.4254C14.9305 18.4172 15.1485 18.4776 15.1724 18.466C15.1963 18.4544 15.1239 18.4433 15.1028 18.4254C15.067 18.395 15.1706 18.433 15.1848 18.4417C15.2114 18.4579 15.2225 18.4823 15.181 18.4869C15.0848 18.4976 14.9875 18.4967 14.8923 18.5206C14.4926 18.6209 14.9511 18.7052 14.9923 18.6297C15.0026 18.6109 14.7546 18.5693 14.7218 18.5717C14.5823 18.5817 15.0095 18.6189 15.1409 18.5612C15.2708 18.5043 15.1851 18.4309 15.1086 18.3546C15.0759 18.322 15.1255 18.3948 15.1409 18.4045C15.191 18.4358 15.248 18.4503 15.301 18.4718C15.3754 18.5021 15.3341 18.3547 15.3039 18.3116C15.2812 18.2794 15.2675 18.3216 15.2743 18.3464C15.2884 18.3978 15.3128 18.4453 15.3391 18.4881" stroke="white" stroke-width="0.157604" stroke-linecap="round"/>
<path d="M15.5789 19.157C15.5149 19.1667 15.6048 19.3321 15.5512 19.1651C15.5468 19.1514 15.4976 18.9964 15.4798 18.9991C15.4604 19.002 15.523 19.1135 15.5274 19.1256C15.5436 19.1701 15.5144 19.0994 15.5017 19.0838C15.4523 19.0236 15.528 19.2179 15.5407 19.2406C15.5933 19.3345 15.6298 19.4454 15.6807 19.5425C15.7372 19.6501 15.7257 19.6196 15.6855 19.5216C15.6614 19.4627 15.5939 19.2832 15.617 19.3427C15.6635 19.4634 15.6898 19.5939 15.7493 19.7073C15.8159 19.834 15.7831 19.6932 15.7637 19.6284C15.7354 19.5345 15.6977 19.4432 15.6741 19.3474C15.6437 19.2239 15.776 19.5741 15.837 19.6795C15.8954 19.7804 15.9834 20.0084 16.0761 20.0719C16.1271 20.1069 16.0057 19.9578 15.9741 19.8978C15.942 19.8365 15.8957 19.7502 15.9732 19.8258" stroke="white" stroke-width="0.157604" stroke-linecap="round"/>
<path d="M17.6706 19.4914C17.6627 19.5983 17.5529 19.8958 17.7268 19.6586C17.8269 19.522 17.921 19.3798 18.0231 19.2452C18.0283 19.2384 18.2013 19.0098 18.2079 19.0246C18.2215 19.0549 18.059 19.2792 18.0488 19.2963C17.9177 19.517 17.7874 19.7383 17.6554 19.9581C17.6124 20.0298 17.5698 20.136 17.5087 20.1892C17.5069 20.1908 17.5003 19.9369 17.4916 19.907C17.4596 19.7988 17.2051 20.0739 17.3448 19.8467" stroke="white" stroke-width="0.157604" stroke-linecap="round"/>
<path d="M15.5104 19.5542C15.5104 19.6365 15.4612 20.1443 15.5867 20.1662C15.6079 20.1698 15.577 20.0171 15.5752 20.0094C15.534 19.8338 15.4429 19.6789 15.3657 19.5252C15.2971 19.3888 15.2307 19.2501 15.1541 19.12C15.0768 18.9884 15.2116 19.1934 15.2266 19.2128C15.3985 19.4362 15.5831 19.6578 15.7848 19.8422C15.8375 19.8903 15.7018 19.7039 15.681 19.6785C15.6698 19.6648 15.555 19.493 15.5724 19.5902C15.593 19.7057 15.6493 19.8434 15.7162 19.9304C15.7822 20.0163 15.6057 19.7374 15.5486 19.6424C15.4305 19.4463 15.5747 19.6761 15.6314 19.7423C15.6932 19.8145 15.7632 19.8748 15.8248 19.9467C15.8286 19.9511 15.8846 20.0159 15.8448 19.9734C15.659 19.7753 15.4761 19.5561 15.3142 19.329C15.3078 19.3199 15.2323 19.2203 15.258 19.2477C15.3257 19.32 15.391 19.3984 15.4552 19.4753C15.5673 19.6096 15.6814 19.7434 15.8096 19.8549C15.911 19.9433 15.6748 19.5989 15.6162 19.4648C15.6005 19.429 15.5524 19.3238 15.5828 19.4335C15.6068 19.5201 15.652 19.5922 15.6952 19.6657C15.8145 19.8685 15.5797 19.5211 15.5523 19.4753C15.5224 19.4252 15.4966 19.3716 15.4704 19.3185C15.4467 19.2702 15.5298 19.4049 15.559 19.4486C15.6884 19.6423 15.8435 19.8675 15.9296 20.0965C15.9347 20.11 15.9686 20.1968 15.9277 20.1673C15.8044 20.0783 15.6972 19.9454 15.5867 19.8352C15.5794 19.828 15.4318 19.6866 15.4409 19.7423C15.4573 19.8423 15.5318 19.9492 15.579 20.0303C15.5974 20.0618 15.7342 20.2745 15.7219 20.2404C15.676 20.1125 15.6024 19.9991 15.5552 19.8712C15.5324 19.8095 15.5595 19.8791 15.5657 19.8979C15.6081 20.0271 15.669 20.1428 15.7295 20.2602C15.7665 20.3319 15.885 20.541 15.7391 20.3972C15.6234 20.2832 15.315 19.9051 15.3866 20.064C15.459 20.2244 15.5685 20.3594 15.6619 20.5017C15.7157 20.5836 15.6524 20.496 15.6362 20.4715C15.5553 20.3496 15.4811 20.2222 15.398 20.1022C15.278 19.9289 15.4193 20.1407 15.4571 20.2044C15.5097 20.2933 15.564 20.3807 15.6171 20.4692C15.653 20.5289 15.6901 20.5874 15.7276 20.6457C15.7406 20.6658 15.7842 20.7146 15.7639 20.7084C15.7153 20.6936 15.6338 20.541 15.6 20.4994C15.5369 20.4218 15.4753 20.3371 15.4038 20.2706C15.3238 20.1963 15.532 20.46 15.6038 20.5458C15.6437 20.5935 15.7766 20.7799 15.7219 20.6085C15.6726 20.4543 15.6114 20.3067 15.5562 20.1557C15.5383 20.107 15.5124 19.9668 15.4685 19.9362C15.4566 19.9279 15.4786 20.1085 15.4799 20.1162C15.5043 20.2527 15.5385 20.3842 15.5867 20.511C15.6119 20.5775 15.6364 20.6461 15.6648 20.7107C15.6798 20.7449 15.543 20.673 15.5314 20.6666C15.4238 20.607 15.1243 20.3738 15.2266 20.446C15.3658 20.5442 15.4811 20.7016 15.6114 20.8163C15.6494 20.8497 15.6385 20.8399 15.6114 20.7966C15.5447 20.6901 15.486 20.577 15.4209 20.4692C15.3613 20.3704 15.2925 20.278 15.2361 20.1766C15.2153 20.1392 15.3476 20.2926 15.3599 20.3066C15.4603 20.4202 15.7769 20.7337 15.6571 20.6526C15.5918 20.6084 15.5414 20.5296 15.4876 20.468C15.4369 20.41 15.3747 20.3688 15.3256 20.309C15.3051 20.284 15.3014 20.2608 15.3294 20.295C15.3821 20.3592 15.4271 20.4317 15.4742 20.5017C15.5067 20.5499 15.5383 20.588 15.579 20.6248C15.6106 20.6534 15.4832 20.4637 15.4685 20.439C15.3939 20.3133 15.3055 20.1993 15.2332 20.0721C15.1706 19.9619 15.2532 20.0548 15.2818 20.086C15.4326 20.2504 15.5716 20.4229 15.7143 20.5969C15.7704 20.6653 15.6678 20.5946 15.6533 20.5853C15.5474 20.5167 15.4471 20.4438 15.3342 20.3926C15.3258 20.3887 15.1978 20.317 15.1885 20.3322C15.166 20.3687 15.2719 20.5328 15.2875 20.5621C15.3767 20.7289 15.4662 20.893 15.579 21.0381C15.6643 21.1478 15.4038 20.8245 15.3161 20.7176C15.2552 20.6434 15.3143 20.7144 15.339 20.7409C15.3958 20.802 15.453 20.8629 15.5104 20.9232C15.5652 20.9806 15.6199 21.0382 15.6743 21.0962C15.6894 21.1123 15.712 21.1385 15.6695 21.1113C15.5933 21.0624 15.5216 21.0009 15.4514 20.9406C15.2944 20.8059 15.139 20.6663 14.9875 20.5226C14.9483 20.4855 14.8217 20.3993 14.8703 20.4111C14.9191 20.423 14.9667 20.4944 15.0008 20.5319C15.1092 20.6514 15.214 20.7745 15.3266 20.8884C15.4724 21.0357 15.3818 20.9233 15.3228 20.8094C15.2904 20.747 15.2549 20.6872 15.2227 20.6248C15.1848 20.551 15.2442 20.6354 15.2647 20.655C15.3885 20.7734 15.5249 20.885 15.6305 21.0288C15.7501 21.1918 15.3227 20.8037 15.1713 20.6863C15.133 20.6566 15.0285 20.5511 15.0589 20.5923C15.1081 20.6589 15.1654 20.7181 15.2199 20.778C15.31 20.8773 15.584 21.1671 15.4819 21.0869C15.3583 20.9898 15.2614 20.8423 15.1408 20.7386C15.0062 20.6227 15.3343 21.0652 15.4476 21.2111C15.5888 21.3932 15.3251 21.1407 15.2847 21.0985C15.2014 21.0115 14.9468 20.7575 15.0342 20.8384C15.1085 20.9073 15.1712 21.0173 15.2361 21.1008C15.2843 21.1629 15.1273 20.9682 15.1094 20.9464C15.1033 20.939 15.0453 20.8542 15.0342 20.8593C15.0158 20.8677 15.125 21.0977 15.1266 21.1008C15.1266 21.1008 15.2926 21.4489 15.3009 21.4468C15.3431 21.4365 15.2389 21.3737 15.2085 21.3366C15.1459 21.2602 15.0958 21.1707 15.0342 21.0939C14.9252 20.9582 15.1353 21.226 15.158 21.2552C15.2111 21.324 15.3985 21.4837 15.3256 21.4515C15.2511 21.4184 15.1804 21.3266 15.1161 21.2727C15.0221 21.1939 14.9264 21.1139 14.8284 21.0428C14.7478 20.9843 14.9431 21.2244 15.0094 21.3052C15.1147 21.4335 14.9987 21.2075 14.9789 21.1531C14.9505 21.0753 15.1252 21.2897 15.1418 21.3075C15.1876 21.3565 15.2422 21.3966 15.2837 21.4515C15.3016 21.4751 15.1355 21.3779 15.1142 21.3609C15.0096 21.2776 14.9102 21.1902 14.7979 21.1217C14.6972 21.0604 14.9811 21.2857 15.0532 21.3911C15.0575 21.3975 15.0985 21.4425 15.0799 21.4213C15.0111 21.3427 14.9293 21.2794 14.855 21.2088C14.8132 21.169 14.7075 21.029 14.7312 21.0869C14.7637 21.1661 14.8452 21.2323 14.8894 21.3052C14.9485 21.403 14.9701 21.4386 14.8875 21.3191C14.8649 21.2865 14.8456 21.2518 14.8208 21.2216C14.7773 21.1686 14.9077 21.3276 14.9513 21.3806C14.9866 21.4238 15.1383 21.5832 15.0074 21.4596C14.939 21.3949 14.8744 21.324 14.8112 21.2518C14.7544 21.1866 14.8457 21.3114 14.855 21.3215C14.9805 21.457 15.1381 21.5491 15.2532 21.6976C15.3752 21.8551 14.9435 21.4846 14.7951 21.3656C14.6687 21.2642 14.7358 21.3463 14.7979 21.4422C14.8426 21.5112 14.997 21.693 14.937 21.6442C14.8007 21.5335 14.6841 21.3795 14.5578 21.2518C14.4759 21.1689 14.715 21.4271 14.7903 21.5188C14.8758 21.6231 14.7337 21.497 14.7046 21.477C14.561 21.3786 14.6867 21.5162 14.7388 21.5815C14.8485 21.7189 14.5631 21.4886 14.5312 21.4654C14.4875 21.4337 14.4429 21.4105 14.3978 21.383C14.3388 21.347 14.4252 21.4107 14.4397 21.4271C14.4994 21.4948 14.5543 21.5685 14.615 21.6349C14.6474 21.6704 14.7024 21.7077 14.7255 21.7545C14.7627 21.8302 14.6045 21.6573 14.5464 21.6047C14.498 21.5609 14.4512 21.5199 14.3997 21.4817C14.3498 21.4446 14.393 21.4713 14.4168 21.4921C14.4824 21.5496 14.5409 21.6168 14.6016 21.6814C14.6148 21.6954 14.7066 21.7682 14.6998 21.7975C14.6937 21.8234 14.4649 21.6907 14.4454 21.6791C14.3733 21.6359 14.1604 21.4976 14.3464 21.6454C14.4141 21.6992 14.4813 21.7552 14.5502 21.8068C14.5669 21.8193 14.6727 21.8759 14.5959 21.8393C14.4909 21.7892 14.3393 21.7215 14.253 21.628C14.1693 21.5372 14.45 21.7595 14.554 21.8103C14.5875 21.8266 14.4771 21.8086 14.4721 21.8068C14.393 21.7776 14.3213 21.7225 14.2435 21.6883C14.235 21.6846 14.11 21.6477 14.112 21.628C14.1137 21.6114 14.23 21.6588 14.2416 21.6651C14.3735 21.7371 14.2198 21.6365 14.173 21.6024C14.1248 21.5673 14.0771 21.5221 14.0234 21.5003C14.0234 21.5003 14.1039 21.5144 14.1282 21.5188C14.1848 21.529 14.5057 21.6712 14.4988 21.5188C14.4968 21.4763 14.4366 21.4615 14.4378 21.4352C14.4421 21.3401 14.6742 21.2102 14.7274 21.1543C14.74 21.1409 14.8436 20.9923 14.7722 21.0521C14.7375 21.0811 14.645 21.3065 14.7293 21.2541C14.8279 21.1928 14.9285 21.0633 14.9922 20.9545C15.0282 20.8931 14.9491 20.9615 14.9408 20.9685C14.8704 21.028 14.8043 21.084 14.7474 21.1624C14.6033 21.3608 14.8953 21.0332 14.9255 20.9975C15.0016 20.9077 15.0726 20.8142 15.1427 20.7176C15.1711 20.6787 15.218 20.6574 15.1523 20.6619C14.9713 20.6744 14.7868 20.8371 14.6874 21.0172C14.5984 21.1785 14.7207 21.2038 14.836 21.1577C14.9834 21.0988 15.1968 20.9113 15.2418 20.7153C15.2563 20.6523 15.2082 20.6198 15.1637 20.6085C15.0409 20.5775 14.9248 20.6335 14.8627 20.7664C14.8269 20.8431 14.7099 21.2024 14.8436 21.2262C14.9992 21.254 15.1187 21.0695 15.1999 20.9371C15.3197 20.7419 15.4581 20.5069 15.5152 20.2695C15.5287 20.2132 15.5634 20.0844 15.5333 20.028C15.4919 19.9504 15.3886 20.0719 15.3647 20.1069C15.2454 20.2814 15.0546 20.7195 15.1275 20.9615C15.1616 21.0749 15.2981 21.0501 15.3704 21.0288C15.5629 20.9721 15.7203 20.8126 15.8457 20.6318C15.9259 20.5161 16.0468 20.3393 16.0544 20.1778C16.0595 20.069 15.8965 20.0543 15.8391 20.05C15.5488 20.0282 15.4419 20.2406 15.4419 20.5644C15.4419 20.7092 15.4532 20.7904 15.579 20.7246" stroke="white" stroke-width="0.157604" stroke-linecap="round"/>
<path d="M14.6794 9.40421C14.8788 9.33989 14.9019 9.17439 14.6509 9.21304C14.3977 9.25199 14.3512 9.67018 14.6366 9.68954C14.7228 9.69536 14.9645 9.63183 14.9349 9.46938C14.9113 9.33995 14.6766 9.39683 14.6794 9.39842C14.8038 9.46976 14.9653 9.36334 15.0169 9.22174C15.035 9.17206 14.8712 9.19981 14.86 9.20143C14.7393 9.21897 14.6801 9.30119 14.6283 9.42741C14.5822 9.53985 14.7799 9.33786 14.7959 9.31294C14.8634 9.20796 14.9 9.13072 14.9242 9.00304C14.9359 8.94108 14.8259 8.95926 14.7982 8.96247C14.6926 8.97474 14.5969 9.22465 14.5558 9.326C14.546 9.35024 14.4456 9.61413 14.4751 9.63304C14.5904 9.70705 14.7421 9.48525 14.8054 9.40709C14.843 9.36073 15.0474 8.96101 14.967 8.96101C14.7635 8.96101 14.6793 9.17892 14.6604 9.41434C14.6304 9.78957 15.0262 9.52516 15.0597 9.30572C15.0778 9.18694 14.9796 9.16959 14.9052 9.16959C14.7773 9.16959 14.7157 9.23141 14.6676 9.37813C14.6427 9.45368 14.5966 9.64045 14.6889 9.67941C14.864 9.75328 14.999 9.55881 15.0715 9.39263C15.1064 9.31291 15.1886 9.02056 15.0632 8.98998C14.9865 8.97128 14.886 8.986 14.8303 9.0566C14.755 9.15229 14.4388 9.85883 14.7436 9.78949C14.8832 9.75772 15.0144 9.58228 15.0811 9.43608C15.0997 9.3951 15.137 9.2711 15.0763 9.25359C14.7629 9.16308 14.4433 9.47295 14.4667 9.87349C14.4904 10.278 14.9512 9.95938 15.0621 9.82421C15.145 9.72319 15.01 9.71995 14.942 9.71995C14.7537 9.71995 14.5827 9.7751 14.437 9.92561C14.3533 10.0121 14.2991 10.4253 14.4751 10.4094C14.6131 10.3969 14.7051 10.1386 14.7341 10.0009C14.777 9.79712 14.673 9.72753 14.5214 9.7185C14.4312 9.71314 14.3139 9.69451 14.2647 9.80974C14.2257 9.90113 14.2153 10.0253 14.2754 10.1067C14.4613 10.3584 14.9115 10.0738 15.0003 9.82133C15.0433 9.69892 14.7733 9.74263 14.727 9.74309C14.5836 9.74466 14.4144 9.73941 14.3515 9.9285C14.3236 10.0121 14.324 10.1728 14.3467 10.2587C14.3949 10.4412 14.6462 10.3991 14.7531 10.35C14.8241 10.3174 15.0903 10.1442 15.0561 10.0053C15.0292 9.89594 14.8048 9.92174 14.7329 9.92707C14.6066 9.9364 14.4303 10.0667 14.6414 10.1342C14.7151 10.1577 14.8505 10.1594 14.8838 10.0502C14.9235 9.92002 14.7553 9.88924 14.6889 9.87928C14.6444 9.87255 14.4619 9.83736 14.4275 9.87928C14.3664 9.95372 14.4878 10.0427 14.5297 10.0545C14.6153 10.0786 14.7311 10.1078 14.8042 10.0299C14.9077 9.91944 14.5734 9.92578 14.5535 9.92561C14.4592 9.92485 14.2255 9.87785 14.1661 10.0154C14.1023 10.1631 14.1874 10.281 14.2861 10.3543C14.3869 10.4293 14.5163 10.4817 14.6343 10.4977C14.7284 10.5105 14.5913 10.4064 14.5725 10.3949C14.4861 10.3423 14.3756 10.2935 14.2778 10.2935C14.2029 10.2935 14.2807 10.5145 14.2944 10.5484C14.345 10.6735 14.3985 10.7969 14.4655 10.9105C14.4878 10.9482 14.4117 10.6753 14.3966 10.6353C14.3817 10.5955 14.2914 10.319 14.2944 10.4789C14.297 10.615 14.3307 10.7769 14.3788 10.8989C14.4396 11.0532 14.329 10.7762 14.317 10.7497C14.2847 10.6784 14.2528 10.6067 14.2184 10.5368C14.2164 10.5327 14.1497 10.4124 14.1483 10.4166C14.1185 10.5074 14.4214 11.0883 14.2612 10.6208C14.2289 10.5267 14.1875 10.2263 14.1875 10.3283C14.1875 10.473 14.2914 10.638 14.3467 10.757C14.3994 10.8702 14.447 11.0352 14.5297 11.1249C14.5468 11.1434 14.5484 11.0715 14.5463 11.0437C14.5326 10.8629 14.4999 10.6844 14.4774 10.505C14.4731 10.4708 14.4137 10.0794 14.424 10.2848C14.4353 10.5143 14.4812 10.7425 14.5511 10.9554C14.5781 11.0378 14.62 11.2635 14.6878 11.3131C14.7337 11.3467 14.6607 11.1867 14.6438 11.1249C14.5853 10.9109 14.5342 10.6952 14.4822 10.4789C14.4579 10.3781 14.3515 10.0963 14.4061 10.1776C14.506 10.3264 14.5658 10.5625 14.6414 10.7309C14.6946 10.8494 14.7415 10.9746 14.803 11.0872C14.8123 11.1041 14.8264 11.1594 14.8292 11.1393C14.8607 10.9085 14.7872 10.6029 14.7448 10.3789C14.7187 10.2409 14.7066 10.1776 14.7365 10.3659C14.7783 10.6299 14.8396 10.9047 14.9135 11.1582C14.9786 11.3813 14.8858 11.1959 14.8517 11.0973C14.8229 11.0139 14.8086 10.9251 14.7852 10.8395C14.7658 10.7686 14.667 10.6104 14.727 10.6266C14.7539 10.6339 14.8084 10.8085 14.8172 10.8294C14.8785 10.9731 14.9308 11.1188 14.9789 11.2697C15.0148 11.3825 15.11 11.7229 15.0977 11.6028C15.0884 11.5121 15.0007 11.4011 14.967 11.3189C14.9179 11.1991 15.0569 11.5634 15.1072 11.6825C15.1328 11.7431 15.2332 11.8768 15.2332 11.9432C15.2332 12.0074 15.1594 11.8462 15.1108 11.8215C15.0897 11.8108 15.1646 11.9508 15.1833 11.9736C15.1914 11.9836 15.2781 12.1039 15.2736 12.1039C15.2072 12.1039 15.1638 11.9377 15.1072 11.9012C15.0453 11.8612 14.9866 11.8184 14.9266 11.7766C14.6777 11.6033 14.4409 11.2534 14.3051 10.9554C14.2078 10.742 14.5319 11.1046 14.563 11.1393C14.6815 11.2715 14.7981 11.4232 14.9349 11.5275C15.0726 11.6324 14.9517 11.4457 14.91 11.3856C14.7605 11.1703 14.7805 11.328 14.8719 11.484C14.9328 11.588 14.8702 11.2912 14.8672 11.2755C14.8564 11.2194 14.7819 10.9228 14.7887 10.9626C14.8162 11.1217 14.8567 11.2863 14.9135 11.4333C14.9208 11.4522 14.9894 11.6373 14.9634 11.5145C14.9316 11.3638 14.8996 11.2114 14.8624 11.0626C14.8191 10.889 14.8617 11.106 14.8767 11.1654C14.8969 11.246 14.92 11.3369 14.9527 11.4116C14.9938 11.5056 14.9073 11.206 14.885 11.1031C14.8335 10.8661 14.9147 11.0655 14.9147 11.1509" stroke="white" stroke-width="0.157604" stroke-linecap="round"/>
<path d="M14.7437 11.4507C14.8099 11.4507 14.8913 11.5413 14.937 11.597C14.9661 11.6325 14.9858 11.6834 15.0037 11.727" stroke="white" stroke-width="0.157604" stroke-linecap="round"/>
<path d="M9.98214 10.4795C9.31033 10.4795 8.46646 10.6497 8.21644 11.547C8.14153 11.8158 8.12033 12.1167 8.14638 12.3993C8.18051 12.7698 8.54042 12.9818 8.81059 13.0484C9.06064 13.11 9.34731 13.1182 9.59816 13.0621C9.72742 13.0331 9.83314 12.946 9.95691 12.9083" stroke="white" stroke-width="0.157604" stroke-linecap="round"/>
<path d="M7.66162 11.0019C7.66162 11.1189 7.6062 11.4939 7.7499 11.4939C7.87291 11.4939 7.58594 10.7549 7.58594 11.1693C7.58594 11.3682 7.62799 11.5788 7.68685 11.7637C7.69198 11.7799 7.7857 11.9634 7.80736 11.9106C7.81993 11.88 7.84244 11.5853 7.84378 11.5895C7.8848 11.7172 7.90775 11.8885 7.93347 12.0234C7.99699 12.3563 7.89937 11.4258 7.91527 11.6681C7.92004 11.741 7.91881 12.0458 7.97692 12.0883C7.99144 12.0989 7.98952 11.9343 7.98952 11.9243C7.98952 11.8024 7.98952 11.6806 7.98952 11.5588C7.98952 11.513 7.98952 11.301 7.98952 11.318C7.98952 11.5043 8.01475 11.6877 8.01475 11.873C8.01475 12.0214 8.01475 11.8028 8.01475 11.7655C8.01475 11.6833 8.01475 11.3759 8.01475 11.3914C8.01475 11.544 8.01475 11.6966 8.01475 11.8492C8.01475 12.1488 8.01475 11.7111 8.01475 11.6407C8.01475 11.4665 8.01475 11.2923 8.01475 11.1181C8.01475 11.0797 8.01475 10.9285 8.01475 11.0566C8.01475 11.2365 8.01475 11.4164 8.01475 11.5964C8.01475 11.8021 8.01475 11.6586 8.01475 11.5383C8.01475 11.4754 7.98724 10.978 8.05118 10.978C8.07995 10.978 8.06518 11.4931 8.06518 11.5485C8.06518 11.6846 8.03998 11.6027 8.03998 11.5109C8.03998 11.4803 8.07577 11.2871 8.11006 11.2923C8.12626 11.2948 8.11676 11.6043 8.11566 11.6407C8.11278 11.7346 8.08782 11.5389 8.09603 11.4939C8.12878 11.3142 8.13076 11.5363 8.12126 11.6032C8.08058 11.8896 8.06518 11.625 8.06518 11.4939C8.06518 11.4729 8.09469 11.2638 8.11006 11.306C8.1391 11.3856 8.08428 11.5014 8.03998 11.5554" stroke="white" stroke-width="0.157604" stroke-linecap="round"/>
<path d="M7.72687 11.6238C7.72687 11.6387 7.72618 11.6538 7.72687 11.6687C7.7284 11.7025 7.78841 11.614 7.79031 11.6113C7.8418 11.5381 7.86755 11.4405 7.92405 11.3717C7.95556 11.3332 7.98941 11.2943 8.02488 11.2614C8.05194 11.2364 8.07937 11.2143 8.10824 11.1925C8.12433 11.1804 8.14536 11.1626 8.16551 11.1626C8.1791 11.1626 8.1722 11.2606 8.1722 11.2762C8.1722 11.3041 8.20435 11.262 8.21036 11.2737C8.21363 11.2801 8.19565 11.355 8.19565 11.3177" stroke="white" stroke-width="0.157604" stroke-linecap="round"/>
<path d="M8.12842 11.8931C8.12842 11.9079 8.13045 11.9221 8.13193 11.9369C8.13652 11.9826 8.14774 12.0283 8.15872 12.0722C8.18574 12.1802 8.21785 12.2886 8.26455 12.3865C8.32725 12.5179 8.40985 12.623 8.50677 12.7167C8.54581 12.7543 8.59146 12.7876 8.62547 12.8323C8.63615 12.8463 8.6381 12.863 8.64071 12.8808" stroke="white" stroke-width="0.157604" stroke-linecap="round"/>
<path d="M8.02819 12.0845C8.02819 12.126 8.03684 12.1925 8.06484 12.2224C8.07302 12.2311 8.06253 12.156 8.06149 12.1491C8.05204 12.0859 8.0418 12.0229 8.03192 11.9598C8.02443 11.9121 8.01814 11.8645 8.01814 11.816C8.01814 11.7895 8.01216 11.7502 8.02075 11.7253C8.02429 11.7151 8.0311 11.7135 8.03692 11.7237C8.08929 11.8159 8.12932 11.917 8.1759 12.0135C8.2585 12.1847 8.35842 12.348 8.47243 12.4904C8.54899 12.5859 8.64724 12.6682 8.74998 12.7162C8.76113 12.7214 8.79484 12.7334 8.7829 12.7334C8.76135 12.7334 8.74073 12.7136 8.72097 12.7046C8.63398 12.6654 8.55673 12.6108 8.47838 12.5507C8.44083 12.5219 8.40084 12.4883 8.37569 12.4428C8.3705 12.4333 8.36139 12.4215 8.35302 12.416C8.33528 12.4045 8.38475 12.446 8.40081 12.4607C8.45563 12.5108 8.51377 12.5543 8.57216 12.5979C8.66296 12.6657 8.75674 12.7192 8.8616 12.7432C8.8997 12.7519 8.93931 12.7375 8.97582 12.758C8.98409 12.7626 9.00179 12.76 9.00596 12.7702" stroke="white" stroke-width="0.157604" stroke-linecap="round"/>
<path d="M12.5332 20.269C12.5332 20.3421 12.5246 20.4144 12.5231 20.4874C12.5214 20.5736 12.5225 20.6599 12.5225 20.7461C12.5225 20.8388 12.5145 20.8905 12.5674 20.7605C12.6153 20.6431 12.6929 20.4878 12.6898 20.3512C12.687 20.2207 12.5259 20.3521 12.4977 20.38C12.3592 20.517 12.2661 20.7313 12.2186 20.9378C12.2063 20.9912 12.1583 21.168 12.2269 21.1994C12.3039 21.2346 12.3814 21.0823 12.409 21.0185C12.4455 20.9341 12.4699 20.8216 12.4527 20.7259C12.4345 20.6243 12.3428 20.7536 12.3227 20.7865C12.2479 20.9089 12.1958 21.0569 12.1636 21.2037C12.1584 21.2279 12.1241 21.4096 12.1808 21.3962C12.31 21.3655 12.391 21.0683 12.4291 20.9457C12.4328 20.9339 12.5061 20.615 12.4599 20.6755C12.357 20.81 12.3056 21.0354 12.2695 21.2081C12.2418 21.3402 12.2013 21.5202 12.2293 21.6585C12.2503 21.7624 12.3345 21.6087 12.3487 21.5749C12.4126 21.4222 12.4022 21.2093 12.4048 21.0445C12.4051 21.0272 12.4075 20.754 12.3605 20.824C12.3229 20.88 12.305 20.9706 12.2878 21.0365C12.2469 21.1933 12.2144 21.353 12.195 21.5158C12.1838 21.6095 12.1354 21.8488 12.1997 21.9324C12.259 22.0095 12.3225 21.9243 12.3499 21.8567C12.3933 21.7491 12.3986 21.6118 12.3924 21.4942C12.3908 21.4629 12.3701 21.2829 12.3144 21.3602C12.2323 21.474 12.2097 21.6916 12.1878 21.8343C12.1648 21.9854 12.1015 22.2629 12.1737 22.4109C12.2144 22.4942 12.2844 22.4123 12.3038 22.3561C12.3657 22.1765 12.3788 21.948 12.3605 21.7565C12.3523 21.6703 12.3321 21.5099 12.2523 21.4718C12.1972 21.4456 12.127 21.6647 12.1146 21.7075C12.0859 21.8058 12.0782 21.9176 12.0761 22.021C12.0745 22.0992 12.0613 22.2275 12.1264 22.2768C12.1929 22.3273 12.208 22.1636 12.2133 22.1219C12.2376 21.9313 12.2536 21.7164 12.1967 21.5316C12.1903 21.5106 12.1446 21.3767 12.1074 21.4005C12.0706 21.4241 12.0769 21.5514 12.0761 21.5886C12.0735 21.709 12.0621 21.8474 12.0968 21.9626C12.1044 21.988 12.1356 22.0665 12.1388 21.9943C12.1454 21.8444 12.1394 21.3938 12.1394 21.5439C12.1394 21.6455 12.1511 21.7466 12.1607 21.8473C12.1705 21.9509 12.1671 22.0755 12.2139 22.1673C12.2804 22.2979 12.3249 22.0925 12.2813 22.0217C12.2418 21.9575 12.2136 22.0054 12.1973 22.0621C12.1662 22.1704 12.1707 22.2977 12.1938 22.4073C12.1984 22.4294 12.2836 22.6908 12.3357 22.609C12.3781 22.5425 12.2553 22.4915 12.2269 22.5478C12.1839 22.6332 12.217 22.7936 12.312 22.7856C12.3901 22.7791 12.3858 22.6221 12.3286 22.5838C12.2433 22.5268 12.1185 22.5648 12.1796 22.7049C12.1907 22.7303 12.203 22.7518 12.2293 22.746C12.26 22.7392 12.2464 22.6182 12.2452 22.5925C12.2422 22.5269 12.2101 22.4985 12.1583 22.4902C12.135 22.4864 12.0909 22.4737 12.0867 22.5139C12.0808 22.5725 12.1409 22.7323 12.1973 22.7323C12.2269 22.7323 12.231 22.6183 12.2328 22.5968C12.234 22.5827 12.2251 22.4474 12.2198 22.4548C12.19 22.4964 12.2135 22.6635 12.2139 22.715C12.2142 22.7587 12.2092 22.8318 12.2352 22.8635" stroke="white" stroke-width="0.157604" stroke-linecap="round"/>
<path d="M12.093 21.7291C12.093 21.7161 12.0925 21.6329 12.093 21.6573C12.0935 21.6861 12.1005 21.774 12.1231 21.7878" stroke="white" stroke-width="0.157604" stroke-linecap="round"/>
<path d="M12.168 23.1379C12.1926 23.1379 12.2178 23.1403 12.2418 23.1326C12.2679 23.1243 12.2935 23.1146 12.3198 23.1071C12.3406 23.1011 12.356 23.0795 12.376 23.0725C12.3851 23.0693 12.3923 23.0577 12.4022 23.0568C12.4107 23.0561 12.4209 23.05 12.4292 23.0469C12.4412 23.0425 12.4588 23.0444 12.4693 23.0344C12.4728 23.0312 12.4865 23.0238 12.478 23.0191C12.4562 23.0068 12.4266 23.0092 12.4034 23.0103C12.3564 23.0127 12.3152 23.0363 12.2706 23.0514C12.2497 23.0585 12.2267 23.0673 12.2048 23.0673C12.1959 23.0673 12.1941 23.0632 12.2016 23.0557C12.23 23.0272 12.2664 23.0073 12.2983 22.9852C12.3115 22.9762 12.3245 22.967 12.3377 22.958C12.3518 22.9484 12.3436 22.9492 12.3319 22.9525C12.3063 22.96 12.2812 22.9726 12.2561 22.9824C12.248 22.9857 12.24 22.9889 12.2323 22.9935C12.2246 22.9981 12.2486 22.9865 12.2566 22.9826C12.3068 22.958 12.3556 22.9289 12.4025 22.8959C12.4077 22.8922 12.4116 22.8879 12.4025 22.888C12.3849 22.8883 12.3667 22.8984 12.3504 22.9052C12.325 22.9157 12.2962 22.9242 12.2721 22.9389C12.2388 22.9592 12.3432 22.911 12.3765 22.8907C12.3947 22.8795 12.4118 22.8666 12.4289 22.8532C12.4339 22.8493 12.4441 22.8439 12.4463 22.8363C12.4476 22.8322 12.4129 22.844 12.4104 22.8451" stroke="white" stroke-width="0.157604" stroke-linecap="round"/>
<path d="M12.4122 22.9624C12.4122 22.9748 12.412 22.9819 12.4191 22.9906C12.4262 22.9993 12.4192 23.0123 12.4246 23.0205C12.4293 23.0277 12.426 23.0442 12.4311 23.0519C12.4322 23.0537 12.433 23.0634 12.4336 23.0658C12.4345 23.0698 12.4256 23.072 12.423 23.0722C12.4042 23.0735 12.3864 23.0879 12.3672 23.0879C12.3619 23.0879 12.3447 23.0889 12.341 23.0925C12.336 23.0974 12.321 23.0908 12.3179 23.0984" stroke="white" stroke-width="0.157604" stroke-linecap="round"/>
<path d="M11.0134 10.1798C10.8018 10.1798 10.6057 10.1701 10.4356 10.3516C9.90708 10.9153 9.90508 12.103 9.95825 12.8807C10.0153 13.7149 10.494 14.2903 11.1701 14.4115C11.2163 14.4198 11.3382 14.406 11.3744 14.4502C11.3801 14.4571 11.1384 14.4695 11.1014 14.4695C10.7998 14.4695 10.5196 14.4581 10.2524 14.2591C9.8174 13.935 9.66894 13.2785 9.65173 12.6918C9.62601 11.8132 9.64997 10.9281 9.64997 10.0488C9.64997 9.75057 9.60251 10.3919 9.58656 10.4653C9.48488 10.9347 9.36465 11.4512 9.36465 11.9404C9.36465 12.2576 9.4828 11.322 9.55488 11.0171C9.58574 10.8866 9.43605 11.3456 9.41398 11.395C9.27244 11.7116 9.14361 12.0464 8.98769 12.3525C8.95143 12.4238 8.92074 12.4835 8.92074 12.3697C8.92074 12.1123 8.91989 11.8558 8.93661 11.599C8.94643 11.4483 8.95244 10.9948 8.95244 11.146C8.95244 11.3692 8.95244 11.5925 8.95244 11.8158C8.95244 11.8289 8.95604 12.0777 8.96655 12.0691C9.08531 11.9726 9.13085 11.5717 9.15679 11.4165C9.17971 11.2793 9.2627 11.001 9.21666 10.8647C9.15171 10.6723 8.92612 11.0758 8.90666 11.1116C8.81862 11.2739 8.54557 11.8201 8.64244 12.0563C8.66844 12.1196 8.74955 12.0252 8.76221 12.0004C8.9097 11.7128 8.93342 11.2735 8.96477 10.9463C8.97479 10.842 9.03202 10.4085 8.8503 10.4331C8.63338 10.4625 8.50941 10.8695 8.44342 11.0687C8.38558 11.2432 7.98244 12.6782 8.33946 12.7905C8.55699 12.859 8.75386 12.4739 8.84324 12.2967C9.01522 11.9559 9.18268 11.495 9.20612 11.0901C9.21079 11.0096 9.23173 10.823 9.17441 10.7595C9.03612 10.6062 8.90259 10.7723 8.85557 10.927C8.79018 11.1421 8.48655 12.427 8.83268 12.5114C9.23922 12.6106 9.22874 10.9517 9.16912 10.6972C9.1496 10.614 9.04306 10.3716 8.93661 10.4632C8.7786 10.5992 8.73454 11.0548 8.70234 11.2597C8.68213 11.3882 8.49374 12.9143 8.67415 12.9065C8.93128 12.8953 9.00968 11.5777 8.96477 11.3285C8.94608 11.2246 8.89084 11.1055 8.79216 11.1717C8.5306 11.3471 8.50939 12.0103 8.46629 12.3096C8.46415 12.3246 8.36628 12.9787 8.42755 12.9881C8.48314 12.9965 8.50642 12.6083 8.50856 12.5844C8.54529 12.1787 8.54252 11.7683 8.54027 11.3607C8.53942 11.2017 8.58512 10.7192 8.47513 10.5963C8.40299 10.5157 8.30919 10.9562 8.30249 10.9828C8.20767 11.3596 8.16485 11.757 8.15982 12.1507C8.15777 12.3107 8.17413 12.6258 8.32184 12.3311C8.37603 12.223 8.77453 11.341 8.61779 11.2318C8.54073 11.1782 8.47381 11.9361 8.48391 12.0176C8.49187 12.0819 8.5362 12.1861 8.60368 12.1336C8.75093 12.0189 8.78727 11.6276 8.81859 11.4422C8.87292 11.1207 8.88903 10.1327 8.88903 10.4611C8.88903 10.9531 8.79908 11.6032 9.0141 12.0455C9.22624 12.4819 9.1636 11.2155 9.1603 11.1674C9.14661 10.967 9.12201 10.5991 8.97007 10.4589C8.79833 10.3005 8.65435 10.8278 8.61955 10.9312C8.47644 11.3567 8.37921 11.8097 8.29013 12.256C8.28302 12.2916 8.16284 12.8494 8.28665 12.7991C8.47669 12.7219 8.64634 12.2776 8.73756 12.0863C8.9038 11.7378 9.06282 11.366 9.13565 10.9699C9.15542 10.8624 9.20606 10.5804 9.03348 10.6693C8.77418 10.8029 8.60681 11.2364 8.47688 11.5152C8.35442 11.778 8.23962 12.0364 8.17921 12.3311C8.14102 12.5172 8.18922 12.3915 8.21091 12.286C8.28791 11.9105 8.37927 11.5405 8.4258 11.1567C8.45155 10.944 8.49152 10.3005 8.47688 10.5147C8.4471 10.9504 8.41347 11.3825 8.41347 11.8201C8.41347 11.8438 8.41347 12.131 8.41347 12.0004C8.41347 11.6298 8.41347 11.259 8.41347 10.8883C8.41347 10.7545 8.39854 10.3545 8.4152 10.4868C8.44515 10.7238 8.44608 10.9595 8.52267 11.1846C8.59371 11.3935 9.00208 12.3083 9.25366 11.8136C9.42682 11.4732 9.51895 10.8109 9.48972 10.4009C9.44873 9.82669 9.12865 11.483 9.0793 12.0563C9.06961 12.1687 8.98292 12.632 9.0793 12.7218C9.13587 12.7746 9.14246 12.5316 9.14271 12.52C9.15522 11.9541 9.2877 11.3735 9.23604 10.8067C9.22934 10.7331 9.18075 10.7784 9.17617 10.826C9.15031 11.0939 9.14877 11.3749 9.14446 11.6441C9.13977 11.9349 9.15124 12.2202 9.17441 12.5093C9.18408 12.6304 9.22199 12.7619 9.26953 12.5758C9.45101 11.8656 9.46539 10.9891 9.4263 10.2506C9.4153 10.043 9.3837 10.3242 9.38049 10.3687C9.35095 10.779 9.35477 11.2019 9.40338 11.6097C9.40865 11.6537 9.58656 12.4471 9.58656 12.1078C9.58656 11.7033 9.41947 10.5126 9.39811 10.9162C9.35913 11.6526 9.42806 13.8677 9.42806 13.1298C9.42806 12.7574 9.4022 12.3879 9.37168 12.0176C9.34552 11.7001 9.34626 11.3418 9.28537 11.03C9.28394 11.0227 9.31664 11.3558 9.33821 11.4465C9.39896 11.7021 9.48052 11.9494 9.55313 12.2001C9.5567 12.2125 9.59235 12.3099 9.58308 12.2731C9.51143 11.9894 9.41024 11.7112 9.30826 11.4422C9.30126 11.4238 9.12668 11.0054 9.11803 11.0171C9.03598 11.1283 9.25232 11.7048 9.28537 11.8136C9.33953 11.9921 9.4025 12.1803 9.48972 12.3397C9.5237 12.4018 9.52318 12.4212 9.52318 12.344" stroke="white" stroke-width="0.157604" stroke-linecap="round"/>
<path d="M8.82066 12.1579C8.81772 12.1861 8.81654 12.214 8.81654 12.2424C8.81654 12.2586 8.81654 12.1805 8.81654 12.1726C8.81654 12.1352 8.81654 12.0977 8.81654 12.0603C8.81654 12.0241 8.80054 12.0856 8.79746 12.0936C8.76971 12.1655 8.74709 12.2378 8.72765 12.3137C8.72765 12.3137 8.71722 12.3537 8.7265 12.3483C8.75475 12.3321 8.77855 12.2862 8.79837 12.2579C8.80216 12.2526 8.8105 12.2388 8.81248 12.2455C8.82497 12.2878 8.82395 12.3418 8.82974 12.3857C8.84704 12.517 8.86441 12.6609 8.92618 12.7738C8.94765 12.813 8.98251 12.8553 9.0244 12.8553C9.0524 12.8553 9.0563 12.8226 9.04419 12.7979C9.02885 12.7665 9.00535 12.7344 8.97891 12.7161C8.96263 12.7049 8.96392 12.7213 8.96392 12.7366C8.96392 12.7567 8.96851 12.7453 8.97254 12.7308C8.9874 12.6776 8.98775 12.6177 8.99006 12.5623C8.99368 12.4768 8.99571 12.391 8.99643 12.3054C8.99678 12.2643 8.99741 12.2228 8.99574 12.1817C8.99538 12.1725 8.99289 12.1169 8.98438 12.1596C8.97359 12.2138 8.95531 12.2936 8.96895 12.3492C8.98506 12.4149 9.04562 12.3099 9.0549 12.2929C9.08877 12.2307 9.11194 12.1651 9.12311 12.0916C9.12671 12.068 9.13107 11.9932 9.13176 12.0609C9.13247 12.1346 9.13758 12.2173 9.17585 12.2782C9.20791 12.3291 9.2266 12.2835 9.23363 12.2413C9.24241 12.1887 9.25241 12.1235 9.24181 12.07C9.23308 12.0259 9.2165 12.0526 9.2095 12.082C9.19215 12.1551 9.18488 12.2489 9.19814 12.3242C9.20173 12.3446 9.22432 12.3917 9.23613 12.3516C9.25532 12.2864 9.24859 12.1977 9.23794 12.1313C9.2366 12.123 9.22306 12.0426 9.21181 12.057C9.18194 12.0951 9.16201 12.1561 9.14038 12.2006C9.09303 12.2981 9.04381 12.3939 8.99302 12.4888C8.95495 12.5601 8.92044 12.6445 8.87364 12.7086C8.85813 12.7299 8.85972 12.7037 8.86296 12.6873C8.87828 12.61 8.90326 12.535 8.92415 12.4597C8.95157 12.3609 8.99184 12.246 8.99074 12.1396C8.99041 12.1056 8.9737 12.1081 8.95256 12.1207C8.90348 12.1502 8.8609 12.1944 8.81654 12.2327" stroke="white" stroke-width="0.157604" stroke-linecap="round"/>
<path d="M10.052 10.884C10.0412 10.9758 10.0161 11.0643 10.0086 11.1567C10.0046 11.2065 10.0029 11.2564 10.0029 11.3064C10.0029 11.3107 10.0025 11.3459 10.003 11.3174C10.0053 11.1882 10.0216 11.0623 10.03 10.9339C10.0307 10.9233 10.0343 10.905 10.0295 10.8946C10.0207 10.8753 10.0056 10.9286 9.99867 10.949C9.98486 10.9901 9.95818 11.075 9.94563 11.116C9.93542 11.1492 9.92288 11.1847 9.91783 11.2202C9.91588 11.2338 9.91379 11.2743 9.91091 11.2609C9.90967 11.2552 9.91184 11.2491 9.91283 11.2433C9.91912 11.2071 9.92771 11.1716 9.93567 11.136C9.95851 11.0335 9.97981 10.9306 9.99933 10.8272C10.005 10.797 10.0111 10.7669 10.0166 10.7367C10.0176 10.7319 10.0083 10.772 10.0067 10.7774C9.96691 10.912 9.93034 11.0507 9.9066 11.191C9.89131 11.281 9.95963 11.0188 9.98261 10.9312C9.99474 10.8849 10.0069 10.8385 10.0173 10.7915C10.0225 10.7683 10.0283 10.746 10.0141 10.7841C9.95296 10.9476 9.90306 11.1182 9.87714 11.2954C9.87061 11.3402 9.86647 11.4771 9.87025 11.4318C9.88346 11.2737 9.91324 11.1172 9.93295 10.9602C9.93498 10.9439 9.93636 10.9314 9.93888 10.9157C9.93968 10.9107 9.94185 10.8953 9.94209 10.911C9.94292 10.9683 9.94198 11.0257 9.94209 11.083C9.94226 11.1741 9.95047 11.2652 9.95047 11.3559C9.95047 11.3928 9.93894 11.2836 9.93438 11.2472C9.91203 11.0693 9.9002 10.89 9.89065 10.7104C9.88725 10.6461 9.88505 10.5817 9.87972 10.5176C9.87964 10.5165 9.871 10.4445 9.8691 10.4479C9.86671 10.4522 9.86183 10.471 9.86141 10.4725C9.85038 10.5146 9.8408 10.5573 9.83119 10.5999C9.79984 10.7385 9.77138 10.8779 9.74631 11.0184C9.73736 11.0686 9.72847 11.1189 9.71996 11.1693C9.71332 11.2085 9.7204 11.1529 9.72141 11.1458C9.72921 11.0894 9.74277 11.0353 9.75532 10.9804C9.77039 10.9144 9.78323 10.8477 9.79806 10.7817C9.79968 10.7745 9.80868 10.7377 9.80868 10.7421C9.80868 10.8117 9.80105 10.8822 9.79679 10.9514C9.78568 11.1315 9.77091 11.3151 9.78571 11.4955C9.78603 11.4995 9.78527 11.5107 9.78746 11.5076C9.79254 11.5005 9.79202 11.4567 9.79229 11.4521C9.80047 11.3123 9.8083 11.1722 9.81285 11.0321C9.81505 10.965 9.81478 10.898 9.81478 10.8309C9.81478 10.8272 9.81478 10.8235 9.81478 10.8197C9.81478 10.8121 9.81478 10.8349 9.81478 10.8424C9.81478 10.8953 9.81478 10.9481 9.81478 11.001C9.81478 11.243 9.8089 11.4866 9.8262 11.728C9.82842 11.7587 9.83111 11.7892 9.8344 11.8197C9.83501 11.8252 9.83567 11.8319 9.83649 11.8189C9.83847 11.7887 9.83789 11.7582 9.83794 11.728C9.83814 11.6055 9.83506 11.2379 9.83506 11.3605C9.83506 11.5189 9.83182 11.6778 9.83569 11.8361C9.83674 11.8792 9.84085 11.9214 9.84934 11.9633C9.84934 11.9633 9.85845 12.0021 9.86043 12.0003C9.86622 11.995 9.84843 11.9014 9.84791 11.8973C9.84118 11.8448 9.83641 11.7896 9.82507 11.7382C9.82463 11.7361 9.82296 11.731 9.82219 11.7329C9.81859 11.7417 9.82062 11.761 9.82057 11.7695C9.82005 11.8411 9.81768 11.9126 9.81768 11.9843C9.81768 12.0474 9.81678 12.1114 9.82219 12.1743C9.8226 12.179 9.83199 12.2298 9.83358 12.2221C9.84096 12.1872 9.83803 12.1456 9.83794 12.11C9.83781 12.0553 9.83616 12.0011 9.82781 11.9472C9.82345 11.9192 9.81779 11.8897 9.80514 11.8651C9.79092 11.8375 9.77934 11.9194 9.77846 11.9255C9.77077 11.979 9.76882 12.0344 9.76882 12.0887C9.76882 12.1208 9.76805 12.1569 9.78008 12.1864C9.78362 12.1951 9.78927 12.2051 9.79567 12.2111C9.79765 12.213 9.79707 12.2051 9.79679 12.2021C9.79405 12.1719 9.78875 12.1419 9.78378 12.1122C9.77195 12.0417 9.75982 11.9715 9.74889 11.9008C9.74469 11.8738 9.7436 11.8203 9.72814 11.7977C9.72603 11.7946 9.72303 11.8037 9.72238 11.8077C9.71697 11.8409 9.71732 11.8766 9.71642 11.9102C9.71323 12.0278 9.70956 12.1476 9.71996 12.2648C9.72485 12.3198 9.75647 12.4808 9.75337 12.4257C9.74873 12.3422 9.73923 12.259 9.73443 12.1755C9.72759 12.0566 9.72221 11.9373 9.72221 11.8181C9.72221 11.8173 9.72224 11.789 9.72287 11.7844C9.72474 11.7705 9.72833 11.812 9.73006 11.826C9.73934 11.8993 9.74818 11.9727 9.75628 12.0461C9.76042 12.0837 9.76309 12.1214 9.76707 12.159C9.76847 12.1724 9.77678 12.2114 9.77349 12.1986C9.76333 12.1594 9.7509 12.1211 9.74085 12.0818C9.72946 12.0372 9.72345 11.9854 9.70676 11.9431C9.70313 11.9339 9.70206 11.9373 9.70099 11.946C9.69748 11.9743 9.69912 12.0044 9.69907 12.0328C9.69896 12.0828 9.69654 12.1341 9.70261 12.1837C9.7042 12.1967 9.70596 12.2202 9.71321 12.2313C9.71452 12.2333 9.71345 12.2262 9.71337 12.2236C9.71255 12.1956 9.71096 12.1675 9.70934 12.1394C9.70423 12.0498 9.69803 11.9603 9.69649 11.8704C9.69632 11.8613 9.68875 11.7696 9.70003 11.7646C9.72622 11.753 9.76693 11.9117 9.77299 11.9337C9.77415 11.9379 9.78455 11.9684 9.77879 11.9664C9.768 11.9627 9.7885 11.9028 9.79183 11.8934C9.80997 11.8413 9.82716 11.7898 9.83794 11.7347C9.8433 11.7072 9.84396 11.6764 9.85178 11.65C9.85227 11.6483 9.8545 11.6432 9.85513 11.6483C9.85889 11.6781 9.85507 11.7134 9.85321 11.7429C9.84703 11.8401 9.82386 11.9328 9.81077 12.0285C9.80981 12.0357 9.8122 12.0525 9.80676 12.0497C9.80231 12.0474 9.81961 11.9925 9.82057 11.9894C9.85101 11.8884 9.89504 11.7923 9.93534 11.6968C9.93976 11.6864 9.9396 11.6863 9.94308 11.677C9.94421 11.674 9.94503 11.6665 9.94723 11.6684C9.95159 11.6722 9.93548 11.7239 9.93438 11.7284C9.91972 11.7879 9.90468 11.8464 9.88777 11.9051C9.88752 11.9059 9.88058 11.9355 9.87989 11.9353C9.87369 11.9338 9.88351 11.8769 9.88472 11.8714C9.88988 11.8481 9.89718 11.8246 9.90578 11.8028C9.91039 11.7912 9.91821 11.7563 9.9212 11.7688C9.92661 11.7913 9.91017 11.8345 9.90481 11.8542C9.88818 11.915 9.86938 11.9757 9.84983 12.0352C9.84489 12.0502 9.83794 12.0639 9.83278 12.0787C9.82974 12.0875 9.83215 12.0595 9.83328 12.0501C9.83987 11.9945 9.86336 11.942 9.88324 11.8921C9.89521 11.8623 9.90792 11.8328 9.9215 11.804C9.92804 11.7902 9.93776 11.7628 9.94885 11.7519C9.952 11.7488 9.95 11.7619 9.94918 11.7668C9.94341 11.8005 9.93498 11.8339 9.92601 11.8665C9.91398 11.9103 9.90034 11.9539 9.88568 11.9964C9.87879 12.0164 9.87887 12.0301 9.86108 12.0301" stroke="white" stroke-width="0.157604" stroke-linecap="round"/>
<path d="M10.0593 11.7339C10.0593 11.771 10.0593 11.8081 10.0593 11.8451C10.0593 11.8787 10.0527 11.9674 10.0906 11.9796C10.1365 11.9944 10.1242 11.8103 10.1232 11.7906C10.1184 11.7022 10.1043 11.5868 10.0389 11.5312C10.0289 11.5226 10.0171 11.5193 10.0051 11.5195C9.97985 11.5199 9.97694 11.5355 9.97354 11.5637C9.96264 11.6544 9.96898 11.7564 10.0024 11.8393C10.0187 11.8797 10.0788 11.9837 10.1232 11.9245C10.1598 11.8758 10.1491 11.7807 10.123 11.7297C10.1085 11.7015 10.0864 11.6648 10.0572 11.6588C10.0491 11.6571 10.0522 11.6726 10.0532 11.6773C10.065 11.7315 10.1014 11.7804 10.1358 11.8152C10.1603 11.84 10.1848 11.851 10.2157 11.8531C10.2225 11.8535 10.2142 11.8586 10.2079 11.851C10.1727 11.8081 10.1431 11.7585 10.1058 11.718C10.0539 11.6617 9.99629 11.605 9.96009 11.5314C9.93535 11.4812 9.91597 11.4184 9.90488 11.3615C9.89385 11.3046 9.85802 11.1974 9.89121 11.1441C9.92462 11.0905 9.96165 11.0442 10.0016 10.999C10.0088 10.9909 10.0621 10.949 10.0454 10.9432C10.0166 10.9331 10.0813 10.8514 10.0937 10.837C10.1072 10.8211 10.1098 10.8138 10.1236 10.8343C10.1564 10.883 10.187 10.9216 10.2098 10.9805C10.2714 11.1387 10.3192 11.3064 10.3725 11.4689C10.4821 11.8027 10.5605 12.1518 10.694 12.4734C10.7052 12.5003 10.7302 12.585 10.7261 12.5552C10.724 12.5395 10.7102 12.5177 10.7044 12.5054C10.6651 12.4224 10.6245 12.3404 10.5856 12.2571C10.4733 12.0164 10.3547 11.7803 10.2387 11.5423C10.1888 11.4396 10.1387 11.3368 10.0832 11.2383C10.0582 11.1939 10.0324 11.1482 9.99981 11.1113C9.98084 11.0897 9.97293 11.0777 9.99289 11.1145C10.0256 11.175 10.0589 11.235 10.0912 11.2958C10.1434 11.3936 10.1927 11.4962 10.2565 11.5836C10.2818 11.618 10.3089 11.6504 10.3365 11.6821C10.3461 11.6931 10.3782 11.7343 10.3558 11.6879C10.2871 11.5454 10.2189 11.4051 10.1562 11.2585C10.1481 11.2395 10.1399 11.2188 10.1297 11.2013C10.1244 11.1921 10.1258 11.2236 10.126 11.2349C10.1276 11.3177 10.1358 11.4002 10.1427 11.4824C10.1438 11.4948 10.1477 11.5413 10.1492 11.5581C10.1498 11.564 10.1553 11.5902 10.1521 11.5968C10.1494 11.6021 10.1453 11.5874 10.1427 11.582C10.1323 11.5597 10.1213 11.5335 10.1121 11.511C10.081 11.4346 10.0502 11.3567 10.0272 11.2759C10.0191 11.2474 10.0108 11.2181 10.0055 11.1886C10.0043 11.182 9.99841 11.1653 10.0033 11.1685C10.0055 11.1699 10.0055 11.174 10.0063 11.1769C10.0128 11.1987 10.0182 11.2209 10.0241 11.2429C10.0762 11.4354 10.1227 11.6354 10.1975 11.8171C10.2093 11.8458 10.2206 11.8805 10.2368 11.9063C10.2438 11.9174 10.2397 11.8779 10.2375 11.8642C10.228 11.8058 10.21 11.7491 10.1948 11.6926C10.141 11.4918 10.0904 11.2892 10.0315 11.0904C10.016 11.0379 9.99824 10.9865 9.98221 10.9342C9.96994 10.8941 9.9723 10.8976 9.9894 10.9312C10.0339 11.0188 10.0737 11.1099 10.1186 11.1971C10.13 11.2191 10.1413 11.2439 10.1553 11.2638C10.1738 11.2899 10.1343 11.1997 10.1228 11.1682C10.0899 11.0781 10.0497 10.9832 10.0289 10.8873C10.0191 10.8418 10.0677 10.9689 10.0826 11.0123C10.1048 11.077 10.1265 11.1422 10.1514 11.2055C10.1517 11.2063 10.1607 11.2295 10.1538 11.2166C10.1353 11.1821 10.1167 11.1475 10.0989 11.1123C10.0857 11.0865 10.0731 11.0601 10.062 11.0329C10.0602 11.0286 10.0441 10.9903 10.0593 11.0128C10.1387 11.1301 10.2069 11.2554 10.2735 11.384C10.3027 11.4404 10.3892 11.6102 10.3647 11.5505C10.3487 11.5113 10.3155 11.4756 10.2939 11.4411C10.2612 11.389 10.2292 11.3361 10.1975 11.2831C10.194 11.2773 10.1558 11.2201 10.174 11.2331C10.2667 11.2991 10.3391 11.425 10.4036 11.5253C10.4937 11.6654 10.5772 11.8112 10.6658 11.9526C10.6797 11.9749 10.6952 11.9957 10.709 12.018C10.7321 12.0555 10.6542 11.9521 10.6267 11.9193C10.4373 11.6936 10.2777 11.4346 10.0954 11.2013C9.95514 11.0218 10.3847 11.5497 10.5263 11.7276C10.5504 11.7579 10.5741 11.7888 10.5962 11.8213C10.6048 11.8339 10.6225 11.8612 10.5954 11.8258C10.4844 11.6805 10.3816 11.5236 10.2809 11.3676C10.2617 11.3379 10.2432 11.3075 10.2244 11.2775C10.221 11.2721 10.1816 11.2134 10.2096 11.2487C10.2979 11.3597 10.3818 11.4763 10.4638 11.5941C10.5086 11.6586 10.5568 11.7225 10.596 11.7924C10.6001 11.7998 10.6411 11.8701 10.6154 11.8409C10.5016 11.712 10.4035 11.5554 10.3235 11.3937C10.2995 11.3455 10.2768 11.2962 10.2561 11.2458C10.2536 11.2397 10.2321 11.1978 10.2348 11.1902C10.2363 11.186 10.2415 11.1942 10.2444 11.1971C10.2647 11.2175 10.283 11.2413 10.3004 11.2654C10.3667 11.3573 10.4267 11.4559 10.4885 11.5523C10.5247 11.6088 10.5541 11.6714 10.5902 11.7273C10.5927 11.7313 10.6013 11.7409 10.5973 11.7395C10.5931 11.738 10.5845 11.7279 10.5837 11.7271C10.5558 11.6969 10.5299 11.6633 10.505 11.6297C10.3932 11.4783 10.2909 11.3117 10.2159 11.129C10.2111 11.1172 10.1933 11.0845 10.2009 11.0938C10.2144 11.1102 10.2253 11.1327 10.2348 11.1523C10.298 11.2827 10.3454 11.4224 10.3929 11.5619C10.4089 11.6086 10.4219 11.6552 10.4442 11.698C10.4831 11.7725 10.3732 11.5437 10.3395 11.4655C10.2838 11.3363 10.2294 11.2055 10.1657 11.0816C10.1643 11.0789 10.1404 11.0385 10.1569 11.0572C10.2182 11.1272 10.2759 11.204 10.3256 11.2865C10.347 11.322 10.3708 11.3611 10.3851 11.4019C10.3937 11.4265 10.3555 11.3625 10.3426 11.3411C10.302 11.2741 10.265 11.2042 10.2287 11.1338C10.2141 11.1053 10.1981 11.0773 10.1855 11.0472C10.1824 11.0398 10.1703 11.0209 10.1762 11.025C10.2362 11.0663 10.2819 11.1562 10.321 11.2217C10.3567 11.2812 10.3883 11.3459 10.4142 11.4125C10.448 11.4996 10.3129 11.2629 10.2765 11.1775C10.2588 11.1357 10.2422 11.0873 10.2315 11.0419C10.2181 10.9844 10.2675 11.1533 10.2861 11.2087C10.3071 11.2715 10.331 11.335 10.3497 11.3988C10.3689 11.4643 10.2873 11.2823 10.2589 11.2219C10.2291 11.1585 10.2001 11.0938 10.1727 11.0287C10.1599 10.9983 10.1667 11.0013 10.1883 11.0221C10.2396 11.0712 10.2752 11.1588 10.3048 11.2277C10.3216 11.267 10.3423 11.3113 10.3523 11.3543C10.3543 11.3626 10.3448 11.3397 10.341 11.3323C10.317 11.2844 10.2949 11.2349 10.2731 11.1854C10.2566 11.1482 10.2367 11.1091 10.2238 11.0697C10.2004 10.9984 10.3423 11.3401 10.3078 11.2759C10.2781 11.2208 10.2561 11.1584 10.2314 11.0999C10.2293 11.095 10.1953 11.0243 10.1979 11.0202C10.2008 11.0158 10.2617 11.1046 10.2674 11.1137C10.2983 11.1624 10.3225 11.2134 10.3443 11.2685C10.3621 11.3135 10.3167 11.2355 10.3143 11.2315C10.2829 11.1782 10.2537 11.1229 10.2279 11.0652C10.2222 11.0525 10.2011 11.0229 10.2127 11.026C10.2197 11.0279 10.2309 11.0554 10.2342 11.061C10.2548 11.096 10.2759 11.1305 10.2956 11.1663C10.3142 11.2 10.334 11.2333 10.3501 11.2688C10.3757 11.3248 10.281 11.1719 10.2518 11.1187C10.2229 11.0662 10.1948 11.0116 10.1734 10.954C10.1692 10.9428 10.1554 10.9101 10.1605 10.9207C10.1725 10.945 10.1818 10.9714 10.1908 10.9974C10.2294 11.1106 10.3378 11.4538 10.3004 11.34C10.2641 11.2292 10.2129 11.1227 10.1705 11.0149C10.1581 10.9831 10.1369 10.9459 10.1314 10.9109C10.1313 10.9097 10.1505 10.9338 10.1531 10.9381C10.1786 10.9795 10.1976 11.0267 10.2177 11.0721C10.2511 11.1476 10.2838 11.2243 10.3156 11.3008C10.3435 11.3678 10.3757 11.4286 10.4095 11.4912C10.4487 11.5639 10.479 11.642 10.517 11.7154C10.5373 11.7548 10.5544 11.7972 10.5715 11.8388C10.5797 11.8588 10.5848 11.8822 10.5949 11.9007" stroke="white" stroke-width="0.157604" stroke-linecap="round"/>
<path d="M10.7829 12.1776C10.7808 12.1662 10.7674 12.1481 10.7621 12.1385C10.7513 12.119 10.739 12.1006 10.7283 12.081C10.7097 12.0471 10.6934 12.0106 10.6768 11.9753C10.6637 11.9475 10.6568 11.9149 10.6418 11.8883C10.6243 11.8571 10.6074 11.8254 10.5904 11.7938C10.584 11.7821 10.5768 11.7717 10.5747 11.7574C10.5736 11.7492 10.5513 11.7024 10.5677 11.7153C10.5992 11.74 10.6329 11.7593 10.6645 11.7841C10.7183 11.8265 10.7623 11.8781 10.8043 11.9366C10.8657 12.0221 10.9263 12.1051 10.9645 12.21C10.9741 12.2365 10.9829 12.263 10.9931 12.2893C11.0022 12.3131 11.0133 12.3356 11.0197 12.3608C11.0242 12.3788 11.0306 12.3961 11.0359 12.4137C11.0363 12.4151 11.0457 12.4507 11.0468 12.4498C11.0522 12.4455 11.0311 12.3898 11.0286 12.3836C11.0114 12.3399 10.9858 12.3018 10.9658 12.2601C10.9546 12.2368 10.948 12.2129 10.939 12.1887C10.9352 12.1784 10.934 12.1619 10.9273 12.1538C10.9052 12.1269 10.8886 12.0876 10.8693 12.0571C10.8191 11.9778 10.9729 12.2135 11.0327 12.2823C11.0416 12.2925 11.0334 12.2812 11.0298 12.2755C11.0102 12.2452 10.9889 12.2164 10.9682 12.1871C10.9577 12.1723 10.9506 12.1549 10.9416 12.1388C10.9394 12.1349 10.9319 12.119 10.9395 12.1306C10.9593 12.1608 10.9821 12.1929 10.9976 12.2268C10.9999 12.2318 11.0021 12.2317 10.9989 12.2268C10.9951 12.221 10.9879 12.2151 10.9831 12.2107C10.9645 12.1937 10.9524 12.1666 10.9364 12.1461C10.9218 12.1273 10.9054 12.1098 10.8897 12.0923C10.8774 12.0785 10.8662 12.0635 10.8543 12.049C10.8406 12.0322 10.8241 12.0188 10.8115 12.0007C10.7689 11.9392 10.7303 11.8736 10.6898 11.8097C10.6495 11.746 10.6006 11.6903 10.5591 11.6272C10.5277 11.5794 10.4986 11.5355 10.4747 11.4814C10.471 11.4731 10.4358 11.4305 10.4316 11.4355" stroke="white" stroke-width="0.157604" stroke-linecap="round"/>
<path d="M15.3134 19.0049C15.2794 18.9636 15.2177 18.9337 15.1937 18.8831C15.1906 18.8767 15.1696 18.8477 15.1715 18.8455C15.1814 18.8346 15.2018 18.8325 15.2135 18.823C15.2523 18.7914 15.2876 18.748 15.322 18.7102C15.616 18.3872 15.8785 18.0175 16.1399 17.6562C16.2567 17.4947 16.3784 17.3218 16.4693 17.1359C16.5254 17.0211 16.5588 16.8886 16.5945 16.763C16.6196 16.6745 16.5794 16.8109 16.5673 16.8352C16.5102 16.9502 16.4655 17.0759 16.4162 17.1961C16.3213 17.4274 16.2203 17.6532 16.1189 17.8802C16.0238 18.093 15.9346 18.308 15.8265 18.5117C15.7833 18.5934 15.7339 18.6686 15.6933 18.7523C15.6333 18.876 15.6727 18.6732 15.6878 18.629C15.7433 18.4661 15.8168 18.3126 15.8833 18.1561C15.9362 18.0316 15.9725 17.8984 16.0177 17.7697C16.0814 17.5887 16.1356 17.3943 16.2231 17.2277C16.2409 17.1938 16.2571 17.1449 16.2571 17.1036C16.2571 17.0579 16.2904 17.0204 16.2904 16.9751C16.2904 16.906 16.3237 16.8342 16.3237 16.7653C16.3237 16.695 16.3348 16.6165 16.3348 16.542" stroke="white" stroke-width="0.157604" stroke-linecap="round"/>
<path d="M16.3349 16.542C16.3349 16.7657 16.262 16.9547 16.2128 17.1645C16.1837 17.2886 16.1135 17.4059 16.0796 17.5299" stroke="white" stroke-width="0.157604" stroke-linecap="round"/>
<path d="M15.8022 18.1256C15.8022 18.0468 15.8911 17.967 15.9243 17.9061C15.9582 17.8443 16.0231 17.777 16.0465 17.7129C16.0702 17.648 16.1231 17.6066 16.1489 17.5438C16.1678 17.4976 16.1844 17.4498 16.2019 17.4017C16.2194 17.3536 16.2362 17.286 16.263 17.2468C16.3118 17.1754 16.1887 17.4093 16.1464 17.4866C16.06 17.6446 15.9659 17.7991 15.9108 17.9738C15.8909 18.0369 15.842 18.0825 15.8158 18.1392C15.8098 18.1522 15.815 18.084 15.8201 18.0715C15.8465 18.0073 15.8811 17.9469 15.9077 17.882C15.9355 17.8144 15.9653 17.7191 16.0157 17.6731C16.0502 17.6414 16.0908 17.561 16.1026 17.5107C16.1115 17.4729 16.172 17.3853 16.1298 17.4769C16.091 17.5608 16.0458 17.6354 16.0045 17.7167C15.9989 17.7277 15.9617 17.8079 15.9583 17.7933C15.9493 17.755 15.9697 17.7225 15.9854 17.6926C16.0119 17.6424 16.0485 17.5929 16.0687 17.5438" stroke="white" stroke-width="0.157604" stroke-linecap="round"/>
<path d="M14.6206 19.5646C14.6206 19.6135 14.6238 19.6153 14.6156 19.5555C14.5962 19.4133 14.5454 19.3019 14.43 19.2512C14.2883 19.189 14.2266 19.4119 14.3296 19.5096C14.3761 19.5536 14.4694 19.6073 14.5303 19.5861C14.5993 19.5621 14.5773 19.4059 14.5743 19.343C14.5682 19.2176 14.4779 18.9821 14.5103 19.2481C14.5339 19.443 14.7761 19.6265 14.9268 19.5371C14.9893 19.5001 14.9721 19.4286 14.9958 19.5601C15.0302 19.7513 15.0859 19.9225 15.1626 20.0937C15.2494 20.2875 15.3552 20.4527 15.5289 20.5341C15.6169 20.5753 15.6568 20.6977 15.687 20.7971C15.6964 20.8282 15.811 21.0312 15.7585 21.0066C15.7045 20.9813 15.642 20.9334 15.5841 20.9256C15.5329 20.9186 15.6834 20.9621 15.7347 20.9684C16.2004 21.0252 16.5857 20.8151 16.9879 20.557C17.0509 20.5166 17.2813 20.4139 17.2639 20.3185C17.2378 20.1755 17.501 19.9484 17.5964 19.9011C17.6357 19.8815 17.7303 19.7381 17.6415 19.7298C17.4662 19.7134 17.2676 19.8719 17.1096 19.9439C16.9325 20.0246 16.7553 20.0792 16.5652 20.0433C16.3996 20.012 16.2992 19.8959 16.1612 19.7971C16.0141 19.6918 15.8536 19.7463 15.7723 19.5234C15.704 19.336 15.84 19.2772 15.84 19.112C15.84 18.9664 16.172 19.1345 16.2791 19.0692C16.5197 18.9226 16.7567 18.6413 16.8964 18.3597C16.9572 18.237 17.0389 18.122 17.1134 18.0111C17.1612 17.9399 17.1837 17.8345 17.23 17.7619C17.3276 17.6089 17.4433 17.4186 17.4433 17.2129C17.4433 17.1602 17.4659 17.0807 17.4835 17.0325C17.5206 16.9305 17.5081 16.9096 17.6114 16.9499C17.686 16.979 17.7498 17.005 17.8272 17.005C17.8751 17.005 17.9805 16.9267 17.8949 17.005" stroke="white" stroke-width="1.37255" stroke-linecap="round"/>
<path d="M22.231 13.3444C22.1336 13.4632 22.1054 13.427 22.1407 13.2618C22.1574 13.1838 22.1855 13.0698 22.2486 13.0264C22.2515 13.0244 22.1666 13.257 22.142 13.3001C22.1011 13.3717 22.1317 13.4102 22.0905 13.479C22.0669 13.5184 21.8376 13.8636 21.8622 13.7649C21.8757 13.7108 22.0052 13.3422 22.0052 13.5111C22.0052 13.5865 21.993 13.6822 22.019 13.7527C22.0723 13.8969 22.1729 13.6294 22.1859 13.586C22.2099 13.5055 22.2873 13.2692 22.2486 13.1854C22.2324 13.1504 22.1538 13.1931 22.1407 13.2114C22.1054 13.2606 22.0955 13.4648 22.0955 13.3994" stroke="white" stroke-width="1.37255" stroke-linecap="round"/>
<path d="M21.96 13.5645C21.96 13.676 21.9357 13.7819 21.9375 13.8948C21.9396 14.0273 22.0303 14.003 22.1131 13.9529C22.302 13.8389 22.4444 13.5762 22.5446 13.3596C22.5599 13.3266 22.7048 12.8849 22.6726 12.8887C22.5693 12.9007 22.4378 13.0778 22.3715 13.1578C22.2653 13.2862 22.1261 13.4527 22.098 13.641C22.0753 13.7935 22.219 13.7474 22.2762 13.67C22.3556 13.5624 22.5086 13.1514 22.3502 13.0584C22.1869 12.9626 22.0227 13.1242 21.9475 13.2908C21.909 13.376 21.9149 13.5349 21.9149 13.4269" stroke="white" stroke-width="1.37255" stroke-linecap="round"/>
<path d="M9.38207 11.9403C9.35951 11.7477 9.29395 12.5606 9.44982 12.5183C9.51795 12.4999 9.50549 11.8027 9.33691 11.8027" stroke="white" stroke-width="1.37255" stroke-linecap="round"/>
<path d="M10.1919 10.9453C10.2246 11.0205 10.274 11.0848 10.3084 11.1594C10.3256 11.1966 10.3454 11.2365 10.358 11.2764C10.3914 11.3822 10.4629 11.468 10.4962 11.5736C10.5113 11.6212 10.5458 11.6628 10.5676 11.7063C10.6252 11.8213 10.7057 11.9174 10.7679 12.0291C10.8105 12.1056 10.8574 12.1782 10.9008 12.2541C10.921 12.2895 10.9465 12.3309 10.9745 12.3578C11.0001 12.3822 11.0207 12.4192 11.0427 12.4483C11.0563 12.4663 11.087 12.4874 11.0932 12.5102" stroke="white" stroke-width="0.27451" stroke-linecap="round"/>
<path d="M10.2622 11.2134C10.2736 11.2151 10.285 11.2476 10.294 11.2563C10.3326 11.294 10.3626 11.3442 10.399 11.3852C10.4511 11.4438 10.4937 11.5115 10.5514 11.5617C10.5933 11.5982 10.6282 11.6609 10.6492 11.7175C10.686 11.8172 10.7441 11.9034 10.7918 11.9952C10.8406 12.0892 10.8877 12.1797 10.9251 12.2817C10.9554 12.364 10.9908 12.434 11.0361 12.505C11.0379 12.5078 11.0613 12.5484 11.0578 12.5291C11.0544 12.5107 11.0465 12.4896 11.0414 12.4716C11.0309 12.4343 11.0339 12.407 11.0053 12.3871" stroke="white" stroke-width="0.27451" stroke-linecap="round"/>
<path d="M10.3237 11.2026C10.343 11.2026 10.3565 11.2364 10.3677 11.2521C10.39 11.2832 10.4152 11.3105 10.4371 11.342C10.4679 11.3864 10.4975 11.4337 10.5304 11.4759C10.5521 11.5039 10.57 11.546 10.5866 11.579C10.6044 11.6144 10.6267 11.6541 10.6501 11.6838C10.6813 11.7233 10.6948 11.7756 10.7204 11.8189C10.7432 11.8573 10.7603 11.9012 10.7785 11.9422C10.8043 11.9999 10.8436 12.0519 10.8733 12.1071C10.8893 12.1368 10.9041 12.1682 10.9197 12.1995C10.9508 12.2613 10.9833 12.3285 11.0206 12.384C11.0403 12.4133 11.058 12.4442 11.0778 12.4731C11.1027 12.5096 11.1044 12.5638 11.1283 12.6014C11.1388 12.6179 11.1723 12.6391 11.1723 12.6586C11.1723 12.6935 11.1618 12.7252 11.1594 12.7595C11.1577 12.7833 11.1591 12.8079 11.1591 12.8318C11.1591 12.8614 11.1563 12.885 11.1679 12.9098C11.1784 12.9323 11.187 12.9551 11.1987 12.9765" stroke="white" stroke-width="0.27451" stroke-linecap="round"/>
<path d="M16.002 16.5231C16.0161 16.4939 16.0398 16.4698 16.0602 16.4476C16.1074 16.3961 16.1588 16.3506 16.2074 16.3012C16.2595 16.2481 16.3124 16.2011 16.3685 16.1549C16.4025 16.1269 16.4387 16.1003 16.4757 16.0785C16.4932 16.0681 16.5121 16.0481 16.5305 16.0425" stroke="#F73A93" stroke-width="0.27451" stroke-linecap="round"/>
<path d="M16.0664 16.5744C16.068 16.5368 16.1088 16.5029 16.1278 16.4775C16.1658 16.4265 16.2082 16.3775 16.251 16.3324C16.2845 16.297 16.3217 16.2666 16.3544 16.2303C16.3696 16.2135 16.3889 16.2027 16.4049 16.1871C16.4576 16.1361 16.5112 16.0891 16.5669 16.0428C16.6165 16.0016 16.6715 15.9708 16.7242 15.9362C16.7687 15.9071 16.814 15.8838 16.8591 15.857C16.9096 15.827 16.9685 15.8124 17.0221 15.7919C17.0613 15.7769 17.102 15.7657 17.1416 15.7529C17.1536 15.749 17.1667 15.7474 17.1767 15.7393" stroke="#F73A93" stroke-width="0.27451" stroke-linecap="round"/>
<path d="M16.9219 16.2172C16.9375 16.2016 16.9589 16.2008 16.9756 16.188C17.0004 16.169 17.0275 16.1537 17.0531 16.1362C17.0796 16.118 17.1069 16.1016 17.1335 16.0837C17.149 16.0733 17.1665 16.0532 17.1833 16.0474C17.1912 16.0446 17.2027 16.0468 17.2108 16.0468C17.235 16.0468 17.2603 16.0406 17.2836 16.0328C17.2991 16.0276 17.3132 16.0199 17.3282 16.0132C17.339 16.0084 17.3504 16.0077 17.361 16.002C17.3651 15.9998 17.3802 15.9932 17.3802 15.9865C17.3802 15.9801 17.3648 15.9788 17.361 15.9798C17.3488 15.9831 17.3349 16.0003 17.3244 16.0076C17.301 16.0239 17.2809 16.0428 17.2589 16.0607" stroke="white" stroke-width="0.27451" stroke-linecap="round"/>
<path d="M17.0503 16.1086C17.0659 16.1086 17.0774 16.0963 17.0911 16.0891C17.1101 16.079 17.1276 16.0652 17.1467 16.0554C17.1827 16.0369 17.2202 16.0227 17.2563 16.004C17.276 15.9938 17.2967 15.9908 17.3163 15.9807C17.324 15.9767 17.3398 15.9717 17.3484 15.9717" stroke="white" stroke-width="0.27451" stroke-linecap="round"/>
<path d="M11.5701 11.1061C11.5701 11.5006 11.5518 11.8999 11.573 12.2938C11.5793 12.4091 11.7721 12.7552 11.8234 12.4756C11.8825 12.1532 11.8576 11.7907 11.5347 11.6545C11.1524 11.4931 10.6434 11.5023 10.5479 12.015C10.4817 12.3706 10.5522 12.6317 10.8808 12.7422C11.2534 12.8675 11.3753 12.5189 11.3992 12.1847C11.4268 11.8 11.2599 11.4668 10.8602 11.4363C10.5485 11.4126 10.5734 11.7062 10.6216 11.9787C10.701 12.428 11.4006 12.6092 11.7409 12.6998C12.4222 12.8811 13.1249 12.9287 13.8264 12.924C14.4305 12.9199 15.0809 12.8713 15.5821 12.4816C15.7193 12.3749 15.9289 12.1451 15.8059 11.9484C15.5984 11.6163 14.9316 11.7522 14.6453 11.806C14.0561 11.9166 12.994 12.4658 13.3905 13.2815C13.5513 13.6124 14.2076 14.1234 14.5923 13.9481C14.927 13.7955 15.0026 13.3095 14.9959 12.9815C14.9828 12.3404 14.5635 11.8714 14.015 11.609C13.454 11.3408 12.754 11.4427 12.5304 12.0999C12.3822 12.5352 12.3851 13.2361 12.8308 13.4693C13.5085 13.824 14.0937 13.5375 14.2388 12.7664C14.3436 12.2097 14.2734 11.6974 13.6909 11.5C13.4431 11.416 13.1317 11.4017 12.9516 11.6333C12.4954 12.2197 12.9061 13.2071 13.4082 13.6026C14.1342 14.1746 15.1556 14.4028 15.641 13.4512C15.7215 13.2932 15.8974 12.9496 15.7411 12.7816C15.554 12.5804 15.1254 12.7568 14.9517 12.8816C14.0621 13.5202 13.8768 15.0858 14.0739 16.0992C14.1826 16.6585 14.5329 17.1323 15.1019 16.8082C15.8613 16.3756 16.3317 15.1393 16.5836 14.3419C16.8099 13.6254 16.9697 12.8643 17.046 12.115C17.0528 12.0485 17.1769 11.062 16.9017 11.1485C16.5881 11.2471 16.3499 11.9393 16.236 12.1908C15.8531 13.0358 15.6506 13.8764 15.585 14.8055C15.5515 15.2793 15.3703 16.1774 15.9503 16.4204C16.7559 16.758 17.4097 15.2564 17.6204 14.7358C17.8509 14.1664 18.6221 11.2495 17.0608 12.1726C16.0828 12.7507 14.9545 14.5662 15.314 15.7811C15.6128 16.7909 16.8984 16.8441 17.4908 16.1083C18.2558 15.1584 18.2392 13.2964 17.2552 12.4998C16.3978 11.8058 15.7154 12.8248 15.5496 13.6178C15.3603 14.5233 15.2447 15.6869 15.4642 16.6022C15.7 17.5852 16.4997 17.4872 16.996 16.7294C17.2906 16.2795 17.81 14.8499 17.2346 14.4146C16.6201 13.9499 15.8478 14.5688 15.4849 15.06C14.9529 15.7799 14.7156 16.8517 14.8398 17.7414C14.905 18.2087 15.1924 18.547 15.6616 18.6018C16.458 18.6949 16.9345 17.8293 17.2552 17.2263C18.0024 15.8213 18.5422 14.3636 18.622 12.7634C18.6302 12.5971 18.8426 11.6293 18.4629 11.8454C18.0719 12.0679 17.7429 12.4576 17.4496 12.7937C16.9045 13.4183 16.4014 14.114 16.1241 14.9115C15.9769 15.3347 15.757 16.0185 16.0681 16.4204C16.2698 16.6809 16.6092 16.6999 16.8899 16.584C17.7649 16.2228 18.5409 15.2379 19.0108 14.4298C19.3082 13.9182 19.5421 13.3583 19.6588 12.7725C19.7412 12.359 19.8483 11.7012 19.4556 11.406C18.6701 10.8157 18.0726 12.1107 17.968 12.6937C17.8688 13.247 17.7675 14.0232 18.5041 14.0389C19.5544 14.0615 20.335 13.2019 20.6132 12.2241C20.729 11.8171 20.8456 11.1623 20.5484 10.797C20.4021 10.6173 20.0821 10.5614 19.9033 10.7183C19.6556 10.9356 19.629 11.464 19.706 11.7727C19.8563 12.3757 20.8945 12.3578 21.3378 12.1605C21.7272 11.9872 22.2908 11.3832 21.6265 11.1697C21.2453 11.0472 20.4771 10.9518 20.298 11.4636C20.0333 12.2199 20.8129 12.8738 21.5146 12.7604C21.6619 12.7365 21.7429 12.5912 21.6913 12.4453C21.5569 12.065 21.0197 11.8427 20.6957 11.6908C20.481 11.5902 19.4197 11.1114 19.3672 11.5969C19.342 11.8303 19.3893 12.0593 19.5763 12.2089C19.7096 12.3156 20.0754 12.3487 19.8356 12.1059C19.4544 11.7201 18.7956 11.3894 18.2479 11.4363C17.9178 11.4646 17.9327 11.7643 17.9327 12.0423C17.9327 12.4376 18.0413 12.8419 18.4099 13.0452C18.4294 13.056 18.7381 13.1296 18.7309 13.1148C18.6503 12.949 18.1332 12.8536 17.9857 12.7967" stroke="white" stroke-width="1.37255" stroke-linecap="round"/>
<path fill-rule="evenodd" clip-rule="evenodd" d="M11.7549 12.3417C12.2482 11.9776 12.9125 11.8685 13.5245 12.111C13.9442 12.2773 14.2687 12.581 14.4665 12.9499C14.3995 12.3788 14.0818 11.8926 13.58 11.6938C12.9459 11.4425 12.2114 11.7271 11.7549 12.3417Z" fill="#F73A93"/>
<path fill-rule="evenodd" clip-rule="evenodd" d="M13.8589 14.703C13.2482 14.6488 12.6784 14.2904 12.3807 13.7032C12.1765 13.3006 12.1347 12.8582 12.231 12.4507C11.9028 12.9229 11.8186 13.4976 12.0626 13.979C12.3711 14.5873 13.1098 14.8608 13.8589 14.703Z" fill="#F73A93"/>
<path fill-rule="evenodd" clip-rule="evenodd" d="M14.5767 15.8505C15.6106 15.7587 16.5754 15.1519 17.0794 14.1579C17.425 13.4762 17.4957 12.7274 17.3328 12.0376C17.8883 12.8369 18.0309 13.8098 17.6177 14.6246C17.0955 15.6546 15.845 16.1175 14.5767 15.8505Z" fill="#F73A93"/>
<path fill-rule="evenodd" clip-rule="evenodd" d="M17.5217 11.7929C17.0284 11.4288 16.3641 11.3197 15.7521 11.5622C15.3324 11.7285 15.008 12.0321 14.8101 12.4011C14.8771 11.83 15.1948 11.3437 15.6966 11.1449C16.3307 10.8936 17.0652 11.1783 17.5217 11.7929Z" fill="#F73A93"/>
</g>
<defs>
<clipPath id="clip0_3_4595">
<rect width="28" height="29.6471" fill="white" transform="translate(0.5 0.17627)"/>
</clipPath>
</defs>
</svg>
