<svg width="10" height="12" viewBox="0 0 10 12" fill="none" xmlns="http://www.w3.org/2000/svg">
<path d="M3.47629 2.06184C3.77274 1.1943 4.97143 1.16803 5.32291 1.98302L5.35266 2.06233L5.75272 3.23227C5.8444 3.50058 5.99256 3.74611 6.18719 3.95229C6.38183 4.15848 6.61842 4.32052 6.88101 4.42749L6.98859 4.46765L8.15853 4.86721C9.02606 5.16366 9.05234 6.36235 8.23784 6.71383L8.15853 6.74358L6.98859 7.14364C6.72019 7.23526 6.47456 7.38339 6.26829 7.57803C6.06202 7.77267 5.8999 8.00929 5.79287 8.27193L5.75272 8.37901L5.35315 9.54945C5.0567 10.417 3.85801 10.4433 3.50703 9.62876L3.47629 9.54945L3.07673 8.37951C2.98511 8.11111 2.83698 7.86548 2.64234 7.65921C2.44769 7.45294 2.21107 7.29082 1.94843 7.18379L1.84135 7.14364L0.671415 6.74407C-0.19662 6.44762 -0.222894 5.24893 0.592097 4.89795L0.671415 4.86721L1.84135 4.46765C2.10966 4.37597 2.35519 4.22781 2.56137 4.03317C2.76756 3.83853 2.9296 3.60194 3.03657 3.33935L3.07673 3.23227L3.47629 2.06184ZM8.38062 0.352539C8.47336 0.352539 8.56424 0.378554 8.64293 0.427629C8.72163 0.476704 8.78498 0.546869 8.82579 0.630152L8.84958 0.688153L9.02309 1.19678L9.53221 1.37029C9.62515 1.40186 9.70663 1.46032 9.76631 1.53825C9.826 1.61618 9.8612 1.71007 9.86747 1.80803C9.87373 1.90599 9.85077 2.00361 9.80151 2.0885C9.75223 2.1734 9.67887 2.24176 9.59071 2.28492L9.53221 2.30872L9.02359 2.48222L8.85008 2.99135C8.81845 3.08426 8.75994 3.16569 8.68198 3.22533C8.60403 3.28496 8.51012 3.32011 8.41216 3.32633C8.31421 3.33254 8.21661 3.30953 8.13175 3.26022C8.04688 3.21091 7.97856 3.13752 7.93544 3.04935L7.91165 2.99135L7.73814 2.48272L7.22902 2.30921C7.13608 2.27764 7.0546 2.21918 6.99492 2.14125C6.93523 2.06332 6.90003 1.96942 6.89376 1.87147C6.8875 1.77351 6.91046 1.67589 6.95973 1.59099C7.009 1.5061 7.08236 1.43774 7.17052 1.39458L7.22902 1.37078L7.73764 1.19727L7.91115 0.688153C7.94458 0.590208 8.00782 0.505181 8.09202 0.444993C8.17621 0.384806 8.27712 0.352477 8.38062 0.352539Z" fill="#F73A93"/>
</svg>
